<?xml version="1.0" encoding="UTF-8"?>
<svg width="60px" height="60px" viewBox="0 0 60 60" version="1.1" xmlns="http://www.w3.org/2000/svg" xmlns:xlink="http://www.w3.org/1999/xlink">
    <!-- Generator: Sketch 42 (36781) - http://www.bohemiancoding.com/sketch -->
    <title>alarm</title>
    <desc>Created with Sketch.</desc>
    <defs></defs>
    <g id="Page-1" stroke="none" stroke-width="1" fill="none" fill-rule="evenodd">
        <g id="noun_603571_cc" transform="translate(8.169460, 7.000000)" fill-rule="nonzero" fill="#FFFFFF">
            <g id="Group">
                <path d="M38.3108108,44.9793852 C38.6756757,45.5861475 38.4324324,46.3142623 37.8243243,46.6783197 C37.5810811,46.7996721 37.4594595,46.7996721 37.2162162,46.7996721 C36.7297297,46.7996721 36.3648649,46.5569672 36.1216216,46.1929098 L32.5945946,39.639877 C29.6756757,41.7028689 26.1486486,42.9163934 22.2567568,42.9163934 C18.3648649,42.9163934 14.8378378,41.7028689 11.9189189,39.639877 L8.39189189,46.1929098 C8.14864865,46.5569672 7.78378378,46.7996721 7.2972973,46.7996721 C7.05405405,46.7996721 6.93243243,46.7996721 6.68918919,46.6783197 C6.08108108,46.3142623 5.83783784,45.5861475 6.2027027,44.9793852 L9.97297297,37.9409426 C6.44594595,34.6644262 4.25675676,30.0530328 4.25675676,24.9562295 C4.25675676,20.587541 5.83783784,16.4615574 8.63513514,13.185041 C9.12162162,12.6996311 9.85135135,12.6996311 10.3378378,13.0636885 C10.8243243,13.5490984 10.9459459,14.2772131 10.4594595,14.762623 C8.02702703,17.5537295 6.68918919,21.1943033 6.68918919,24.9562295 C6.68918919,33.4509016 13.6216216,40.3679918 22.2567568,40.3679918 C30.8918919,40.3679918 37.7027027,33.4509016 37.7027027,24.9562295 C37.7027027,16.4615574 30.7702703,9.42311475 22.2567568,9.42311475 C20.4324324,9.42311475 18.4864865,9.78717213 16.7837838,10.3939344 C16.1756757,10.6366393 15.4459459,10.272582 15.2027027,9.66581967 C14.9594595,9.05905738 15.3243243,8.33094262 15.9324324,8.0882377 C18,7.36012295 20.0675676,6.99606557 22.2567568,6.99606557 C32.1081081,6.99606557 40.1351351,15.0053279 40.1351351,24.9562295 C40.1351351,30.0530328 37.9459459,34.7857787 34.4189189,37.9409426 L38.3108108,44.9793852 Z" id="Shape"></path>
                <path d="M41.2297297,15.1266803 C40.8648649,15.1266803 40.6216216,15.0053279 40.3783784,14.762623 L29.6756757,4.08360656 C29.1891892,3.59819672 29.1891892,2.87008197 29.6756757,2.38467213 C31.0135135,1.04979508 32.7162162,0.321680328 34.6621622,0.321680328 C38.1891892,0.321680328 42.0810811,3.11278689 43.6621622,6.75336066 C44.8783784,9.78717213 44.3918919,12.6996311 42.2027027,14.8839754 C41.8378378,15.0053279 41.5945946,15.1266803 41.2297297,15.1266803 Z M32.3513514,3.23413934 L41.2297297,12.0928689 C42.2027027,10.3939344 41.8378378,8.57364754 41.3513514,7.60282787 C40.1351351,4.81172131 37.2162162,2.62737705 34.6621622,2.62737705 C33.8108108,2.62737705 32.9594595,2.87008197 32.3513514,3.23413934 Z" id="Shape"></path>
                <path d="M3.04054054,15.1266803 C2.67567568,15.1266803 2.43243243,15.0053279 2.18918919,14.762623 C-2.90184543e-14,12.5782787 -0.486486486,9.66581967 0.72972973,6.6320082 C2.31081081,2.99143443 6.08108108,0.200327869 9.72972973,0.200327869 C11.5540541,0.200327869 13.2567568,0.928442623 14.7162162,2.26331967 C14.9594595,2.50602459 15.0810811,2.74872951 15.0810811,3.11278689 C15.0810811,3.47684426 14.9594595,3.71954918 14.7162162,3.9622541 L4.01351351,14.6412705 C3.64864865,15.0053279 3.40540541,15.1266803 3.04054054,15.1266803 Z M9.72972973,2.62737705 C7.17567568,2.62737705 4.13513514,4.81172131 3.04054054,7.60282787 C2.67567568,8.57364754 2.18918919,10.3939344 3.16216216,12.0928689 L12.0405405,3.23413934 C11.3108108,2.87008197 10.5810811,2.62737705 9.72972973,2.62737705 Z" id="Shape"></path>
                <path d="M22.2567568,26.1697541 L15.2027027,26.1697541 C14.472973,26.1697541 13.9864865,25.6843443 13.9864865,24.9562295 C13.9864865,24.2281148 14.472973,23.7427049 15.2027027,23.7427049 L21.0405405,23.7427049 L21.0405405,13.185041 C21.0405405,12.4569262 21.527027,11.9715164 22.2567568,11.9715164 C22.9864865,11.9715164 23.472973,12.4569262 23.472973,13.185041 L23.472973,24.9562295 C23.472973,25.6843443 22.9864865,26.1697541 22.2567568,26.1697541 Z" id="Shape"></path>
            </g>
        </g>
    </g>
</svg>