<?xml version="1.0" encoding="UTF-8"?>
<svg width="60px" height="60px" viewBox="0 0 60 60" version="1.1" xmlns="http://www.w3.org/2000/svg" xmlns:xlink="http://www.w3.org/1999/xlink">
    <!-- Generator: Sketch 42 (36781) - http://www.bohemiancoding.com/sketch -->
    <title>bed</title>
    <desc>Created with Sketch.</desc>
    <defs></defs>
    <g id="Page-1" stroke="none" stroke-width="1" fill="none" fill-rule="evenodd">
        <path d="M54.4391346,28.8071429 L54.4391346,16.6428571 C54.4391346,14.0818571 52.3347708,12 49.7460844,12 L10.3244627,12 C7.73577625,12 5.63141255,14.0818571 5.63141255,16.6428571 L5.63141255,28.8071429 C3.49138166,29.2398571 1.87697239,31.1137143 1.87697239,33.3571429 L1.87697239,38.9285714 L1.87697239,44.5 L1.87697239,50.0714286 C1.87697239,50.584 2.29746969,51 2.81558243,51 C3.33369517,51 3.75419247,50.584 3.75419247,50.0714286 L3.75419247,45.4285714 L56.3163546,45.4285714 L56.3163546,50.0714286 C56.3163546,50.584 56.7368519,51 57.2549647,51 C57.7730774,51 58.1935747,50.584 58.1935747,50.0714286 L58.1935747,44.5 L58.1935747,38.9285714 L58.1935747,33.3571429 C58.1935747,31.1137143 56.5791654,29.2398571 54.4391346,28.8071429 Z M7.50863262,16.6428571 C7.50863262,15.107 8.77200174,13.8571429 10.3244627,13.8571429 L49.7460844,13.8571429 C51.2985454,13.8571429 52.5619145,15.107 52.5619145,16.6428571 L52.5619145,28.7142857 L48.4939786,28.7142857 C48.813106,28.042 48.8938264,27.2787143 48.7079817,26.5377143 L47.559123,21.8967143 C47.2005739,20.4444286 45.9109237,19.4285714 44.420411,19.4285714 L37.0241639,19.4285714 C35.2389276,19.4285714 33.7878365,20.8864286 33.7878365,22.6785714 L33.7878365,27.3214286 C33.7878365,27.821 33.9098558,28.2908571 34.1125956,28.7142857 L25.9560743,28.7142857 C26.1569369,28.2908571 26.2789562,27.821 26.2789562,27.3214286 L26.2789562,22.6785714 C26.2789562,20.8864286 24.8259878,19.4285714 23.0426288,19.4285714 L15.6463817,19.4285714 C14.1558689,19.4285714 12.8643415,20.4444286 12.5076697,21.8967143 L11.358811,26.5377143 C11.1729662,27.2805714 11.2536867,28.042 11.5728141,28.7142857 L7.50863262,28.7142857 L7.50863262,16.6428571 Z M35.6669338,27.3214286 L35.6669338,22.6785714 C35.6669338,21.9115714 36.2770303,21.2857143 37.0260411,21.2857143 L37.0260411,21.2875714 L44.4260427,21.2875714 C45.0474025,21.2875714 45.5880419,21.7184286 45.7419739,22.3368571 L45.7419739,22.3387143 L46.8908326,26.9815714 C46.9959569,27.4105714 46.9002187,27.8544286 46.6261446,28.1998571 C46.3670882,28.5267143 45.9822581,28.7142857 45.5711469,28.7142857 L37.0260411,28.7142857 C36.2751531,28.7142857 35.6669338,28.0884286 35.6669338,27.3214286 Z M13.1834689,26.9797143 L14.3323276,22.3368571 L14.3323276,22.335 C14.4862597,21.7165714 15.026899,21.2857143 15.6482589,21.2857143 L15.6482589,21.2838571 L23.0482604,21.2838571 C23.7991485,21.2838571 24.4073678,21.9097143 24.4073678,22.6767143 L24.4073678,27.3195714 C24.4073678,28.0865714 23.7972712,28.7124286 23.0482604,28.7124286 L14.5031546,28.7124286 C14.0920434,28.7124286 13.7072133,28.5267143 13.4481569,28.198 C13.1722056,27.8544286 13.0764674,27.4087143 13.1834689,26.9797143 Z M3.75419247,33.3571429 C3.75419247,31.8212857 5.01756158,30.5714286 6.57002259,30.5714286 L14.4994002,30.5714286 L23.044506,30.5714286 L37.0241639,30.5714286 L45.5692697,30.5714286 L53.5005245,30.5714286 C55.0529855,30.5714286 56.3163546,31.8212857 56.3163546,33.3571429 L56.3163546,38 L3.75419247,38 L3.75419247,33.3571429 Z M3.75419247,39.8571429 L56.3163546,39.8571429 L56.3163546,43.5714286 L3.75419247,43.5714286 L3.75419247,39.8571429 Z" id="Shape" fill="#FFFFFF" fill-rule="nonzero"></path>
    </g>
</svg>