<?xml version="1.0" encoding="UTF-8"?>
<svg width="31px" height="25px" viewBox="0 0 31 25" version="1.1" xmlns="http://www.w3.org/2000/svg" xmlns:xlink="http://www.w3.org/1999/xlink">
    <!-- Generator: Sketch 42 (36781) - http://www.bohemiancoding.com/sketch -->
    <title>Untitled</title>
    <desc>Created with Sketch.</desc>
    <defs></defs>
    <g id="Page-1" stroke="none" stroke-width="1" fill="none" fill-rule="evenodd">
        <g id="noun_311741_cc" fill-rule="nonzero" fill="#a3a2af">
            <g id="Group">
                <path d="M1.13192253,20.1680257 L3.31237446,20.1680257 L3.31237446,23.3813799 C3.31237446,24.0578755 3.8472023,24.6075282 4.50545194,24.6075282 L5.08142037,24.6075282 C5.73967001,24.6075282 6.27449785,24.0578755 6.27449785,23.3813799 L6.27449785,20.1680257 L25.404878,20.1680257 L25.404878,23.3813799 C25.404878,24.0578755 25.9397059,24.6075282 26.5979555,24.6075282 L27.173924,24.6075282 C27.8321736,24.6075282 28.3670014,24.0578755 28.3670014,23.3813799 L28.3670014,20.1680257 L30.4240316,20.1680257 C30.6708752,20.1680257 30.8354376,19.9989018 30.8354376,19.7452159 L30.8354376,13.3185075 C30.8354376,13.0648217 30.6708752,12.8956978 30.4240316,12.8956978 L30.2594692,12.8956978 C30.6297346,12.472888 30.8354376,11.9232353 30.8354376,11.2890207 C30.8354376,10.3165582 30.2594692,9.47093869 29.4366571,9.09040991 L29.4366571,2.24089174 C29.4366571,1.14158636 28.5727044,0.253685858 27.5030488,0.253685858 L4.46431133,0.253685858 C3.39465567,0.253685858 2.53070301,1.14158636 2.53070301,2.24089174 L2.53070301,8.921286 C1.50218795,9.17497186 0.720516499,10.1474343 0.720516499,11.2890207 C0.720516499,11.8809543 0.926219512,12.472888 1.29648494,12.8956978 L1.13192253,12.8956978 C0.88507891,12.8956978 0.720516499,13.0648217 0.720516499,13.3185075 L0.720516499,19.7452159 C0.720516499,19.9989018 0.926219512,20.1680257 1.13192253,20.1680257 Z M5.4516858,23.3813799 C5.4516858,23.5927848 5.28712339,23.7619087 5.08142037,23.7619087 L4.50545194,23.7619087 C4.29974892,23.7619087 4.13518651,23.5927848 4.13518651,23.3813799 L4.13518651,20.2103067 L5.4516858,20.2103067 L5.4516858,23.3813799 L5.4516858,23.3813799 Z M27.5441894,23.3813799 C27.5441894,23.5927848 27.379627,23.7619087 27.173924,23.7619087 L26.5979555,23.7619087 C26.3922525,23.7619087 26.2276901,23.5927848 26.2276901,23.3813799 L26.2276901,20.2103067 L27.5441894,20.2103067 L27.5441894,23.3813799 L27.5441894,23.3813799 Z M1.54332855,11.2890207 C1.54332855,10.4011202 2.24271879,9.68234357 3.10667145,9.68234357 L4.79343615,9.68234357 L15.777977,9.68234357 L15.777977,9.68234357 L16.1482425,9.68234357 L27.1327834,9.68234357 L27.1327834,9.68234357 L28.4492826,9.68234357 C29.3132353,9.68234357 30.0126255,10.4011202 30.0126255,11.2890207 C30.0126255,11.8386734 29.7246413,12.3037641 29.3543759,12.5997309 C29.2720947,12.515169 29.1898135,12.472888 29.0663917,12.472888 C28.8606887,12.472888 28.6549857,12.6420119 28.6549857,12.8956978 L28.5315638,12.8956978 L28.6549857,12.8956978 L28.6549857,12.8956978 C28.6549857,13.0225407 28.6138451,13.1916646 28.5315638,13.3185075 L28.5315638,13.3185075 C28.4492826,13.4876314 28.3670014,13.6144744 28.202439,13.7413173 C27.791033,14.1218461 27.173924,14.333251 26.4745337,14.333251 C25.7751435,14.333251 25.1580344,14.0795651 24.7466284,13.7413173 C24.6232066,13.6144744 24.4997848,13.4876314 24.4175036,13.3185075 C24.3352224,13.1916646 24.2940818,13.0225407 24.2940818,12.8956978 L24.2940818,12.8956978 L24.2940818,12.8956978 C24.2940818,12.6420119 24.1295194,12.472888 23.8826758,12.472888 C23.6358321,12.472888 23.4712697,12.6420119 23.4712697,12.8956978 L23.4712697,12.8956978 L3.10667145,12.8956978 C2.24271879,12.8956978 1.54332855,12.1769212 1.54332855,11.2890207 Z M16.6007891,8.87900502 C16.8064921,7.61057574 17.8761478,6.5958323 19.1926471,6.5958323 L24.1295194,6.5958323 C25.4460187,6.5958323 26.5156743,7.56829476 26.7213773,8.87900502 L16.6007891,8.87900502 Z M5.24598278,8.87900502 C5.4516858,7.61057574 6.52134146,6.5958323 7.83784075,6.5958323 L12.7747131,6.5958323 C14.0912123,6.5958323 15.160868,7.56829476 15.366571,8.87900502 L5.24598278,8.87900502 Z M1.54332855,13.7413173 L3.10667145,13.7413173 L23.7592539,13.7413173 C24.2118006,14.5869368 25.2403156,15.1788705 26.5156743,15.1788705 C27.7498924,15.1788705 28.8195481,14.5869368 29.2720947,13.7413173 L30.0537661,13.7413173 L30.0537661,19.3224062 L1.54332855,19.3224062 L1.54332855,13.7413173 Z M3.35351506,2.24089174 C3.35351506,1.6066771 3.8472023,1.09930538 4.46431133,1.09930538 L27.5441894,1.09930538 C28.1612984,1.09930538 28.6549857,1.6066771 28.6549857,2.24089174 L28.6549857,8.87900502 L28.4904232,8.87900502 L27.5441894,8.87900502 C27.3384864,7.145485 25.8985653,5.75021278 24.1295194,5.75021278 L19.1926471,5.75021278 C17.7115854,5.75021278 16.4773673,6.72267523 15.9836801,8.0333855 C15.4899928,6.68039426 14.2146341,5.75021278 12.7747131,5.75021278 L7.83784075,5.75021278 C6.06879484,5.75021278 4.62887374,7.10320402 4.42317073,8.87900502 L3.39465567,8.87900502 L3.39465567,2.24089174 L3.35351506,2.24089174 Z" id="Shape"></path>
            </g>
        </g>
    </g>
</svg>
