<?xml version="1.0" encoding="UTF-8"?>
<svg width="32px" height="25px" viewBox="0 0 32 25" version="1.1" xmlns="http://www.w3.org/2000/svg" xmlns:xlink="http://www.w3.org/1999/xlink">
    <!-- Generator: Sketch 42 (36781) - http://www.bohemiancoding.com/sketch -->
    <title>Slice</title>
    <desc>Created with Sketch.</desc>
    <defs></defs>
    <g id="Page-1" stroke="none" stroke-width="1" fill="none" fill-rule="evenodd">
        <g id="noun_410713_cc" transform="translate(1.000000, 2.000000)" fill-rule="nonzero" fill="#000000">
            <path d="M28,9.55 L28,3 C28,1.621 26.879,0.5 25.5,0.5 L4.5,0.5 C3.121,0.5 2,1.621 2,3 L2,9.55 C0.86,9.783 0,10.792 0,12 L0,15 L0,18 L0,21 C0,21.276 0.224,21.5 0.5,21.5 C0.776,21.5 1,21.276 1,21 L1,18.5 L29,18.5 L29,21 C29,21.276 29.224,21.5 29.5,21.5 C29.776,21.5 30,21.276 30,21 L30,18 L30,15 L30,12 C30,10.792 29.14,9.783 28,9.55 Z M3,3 C3,2.173 3.673,1.5 4.5,1.5 L25.5,1.5 C26.327,1.5 27,2.173 27,3 L27,9.5 L24.833,9.5 C25.003,9.138 25.046,8.727 24.947,8.328 L24.335,5.829 C24.144,5.047 23.457,4.5 22.663,4.5 L18.723,4.5 C17.772,4.5 16.999,5.285 16.999,6.25 L16.999,8.75 C16.999,9.019 17.064,9.272 17.172,9.5 L12.827,9.5 C12.934,9.272 12.999,9.019 12.999,8.75 L12.999,6.25 C12.999,5.285 12.225,4.5 11.275,4.5 L7.335,4.5 C6.541,4.5 5.853,5.047 5.663,5.829 L5.051,8.328 C4.952,8.728 4.995,9.138 5.165,9.5 L3,9.5 L3,3 Z M18,8.75 L18,6.25 C18,5.837 18.325,5.5 18.724,5.5 L18.724,5.501 L22.666,5.501 C22.997,5.501 23.285,5.733 23.367,6.066 L23.367,6.067 L23.979,8.567 C24.035,8.798 23.984,9.037 23.838,9.223 C23.7,9.399 23.495,9.5 23.276,9.5 L18.724,9.5 C18.324,9.5 18,9.163 18,8.75 Z M6.023,8.566 L6.635,6.066 L6.635,6.065 C6.717,5.732 7.005,5.5 7.336,5.5 L7.336,5.499 L11.278,5.499 C11.678,5.499 12.002,5.836 12.002,6.249 L12.002,8.749 C12.002,9.162 11.677,9.499 11.278,9.499 L6.726,9.499 C6.507,9.499 6.302,9.399 6.164,9.222 C6.017,9.037 5.966,8.797 6.023,8.566 Z M1,12 C1,11.173 1.673,10.5 2.5,10.5 L6.724,10.5 L11.276,10.5 L18.723,10.5 L23.275,10.5 L27.5,10.5 C28.327,10.5 29,11.173 29,12 L29,14.5 L1,14.5 L1,12 Z M1,15.5 L29,15.5 L29,17.5 L1,17.5 L1,15.5 Z" id="Shape"></path>
        </g>
    </g>
</svg>