<?xml version="1.0" encoding="UTF-8"?>
<svg width="162px" height="134px" viewBox="0 0 162 134" version="1.1" xmlns="http://www.w3.org/2000/svg" xmlns:xlink="http://www.w3.org/1999/xlink">
    <!-- Generator: Sketch 42 (36781) - http://www.bohemiancoding.com/sketch -->
    <title>s</title>
    <desc>Created with Sketch.</desc>
    <defs></defs>
    <g id="Page-1" stroke="none" stroke-width="1" fill="none" fill-rule="evenodd">
        <g id="noun_340589_cc-copy" transform="translate(77.500000, 61.000000) rotate(-90.000000) translate(-77.500000, -61.000000) translate(26.500000, 9.500000)" fill-rule="nonzero" fill="#FFFFFF">
            <g id="export">
                <path d="M98.0769231,11 L3.92307692,11 C1.75642141,10.9999999 1.16916844e-07,8.53756606 1.16916844e-07,5.5 C1.16916844e-07,2.46243394 1.75642141,9.05265261e-08 3.92307692,0 L98.0769231,0 C100.243579,6.51330841e-15 102,2.46243388 102,5.5 C102,8.53756612 100.243579,11 98.0769231,11 L98.0769231,11 Z" id="Shape"></path>
                <path d="M66.6923077,40.1428571 L3.92307692,40.1428571 C1.75642137,40.1428571 3.55271368e-13,37.6804233 3.55271368e-13,34.6428571 C3.55271368e-13,31.605291 1.75642137,29.1428571 3.92307692,29.1428571 L66.6923077,29.1428571 C68.8589632,29.1428571 70.6153846,31.605291 70.6153846,34.6428571 C70.6153846,37.6804233 68.8589632,40.1428571 66.6923077,40.1428571 L66.6923077,40.1428571 Z" id="Shape"></path>
                <path d="M81.7307692,71.1071429 L3.26923077,71.1071429 C1.46368447,71.1071429 3.41060513e-13,68.644709 3.41060513e-13,65.6071429 C3.41060513e-13,62.5695767 1.46368447,60.1071429 3.26923077,60.1071429 L81.7307692,60.1071429 C83.5363155,60.1071429 85,62.5695767 85,65.6071429 C85,68.644709 83.5363155,71.1071429 81.7307692,71.1071429 Z" id="Shape"></path>
                <path d="M53.8333333,102.071429 L3.16666667,102.071429 C1.41776496,102.071429 3.30402372e-13,99.6089947 3.30402372e-13,96.5714286 C3.30402372e-13,93.5338624 1.41776496,91.0714286 3.16666667,91.0714286 L53.8333333,91.0714286 C55.582235,91.0714286 57,93.5338624 57,96.5714286 C57,99.6089947 55.582235,102.071429 53.8333333,102.071429 L53.8333333,102.071429 Z" id="Shape"></path>
            </g>
        </g>
    </g>
</svg>