<?xml version="1.0" encoding="UTF-8"?>
<svg width="44px" height="44px" viewBox="0 0 44 44" version="1.1" xmlns="http://www.w3.org/2000/svg" xmlns:xlink="http://www.w3.org/1999/xlink">
    <!-- Generator: Sketch 43.2 (39069) - http://www.bohemiancoding.com/sketch -->
    <title>noun_70958_cc</title>
    <desc>Created with Sketch.</desc>
    <defs></defs>
    <g id="Page-1" stroke="none" stroke-width="1" fill="none" fill-rule="evenodd">
        <g id="noun_70958_cc" fill-rule="nonzero" fill="#FFFFFF">
            <path d="M31.7449524,14.7185238 L18.6020476,27.8614286 L12.7788571,22.0382381 C12.3697619,21.6291429 11.7060952,21.6291429 11.2975238,22.0382381 C10.8884286,22.4473333 10.8884286,23.1104762 11.2975238,23.5195714 L17.861381,30.0839524 C18.0578095,30.280381 18.3244286,30.390381 18.6020476,30.390381 C18.8796667,30.390381 19.1462857,30.280381 19.3427143,30.0839524 L33.2268095,16.1998571 C33.6359048,15.7907619 33.6359048,15.127619 33.2268095,14.7185238 C32.8177143,14.3094286 32.1540476,14.3089048 31.7449524,14.7185238 Z" id="Shape"></path>
            <path d="M22,0 C10.0749524,0 0,10.0744286 0,22 C0,33.9255714 10.0749524,44 22,44 C33.9250476,44 44,33.9255714 44,22 C44,10.0744286 33.9250476,0 22,0 Z M22,41.9047619 C11.2105714,41.9047619 2.0952381,32.7894286 2.0952381,22 C2.0952381,11.2105714 11.2105714,2.0952381 22,2.0952381 C32.7894286,2.0952381 41.9047619,11.2105714 41.9047619,22 C41.9047619,32.7894286 32.7894286,41.9047619 22,41.9047619 Z" id="Shape"></path>
        </g>
    </g>
</svg>