<?xml version="1.0" encoding="UTF-8"?>
<svg width="60px" height="60px" viewBox="0 0 60 60" version="1.1" xmlns="http://www.w3.org/2000/svg" xmlns:xlink="http://www.w3.org/1999/xlink">
    <!-- Generator: Sketch 43.2 (39069) - http://www.bohemiancoding.com/sketch -->
    <title>chronotype</title>
    <desc>Created with Sketch.</desc>
    <defs></defs>
    <g id="Page-1" stroke="none" stroke-width="1" fill="none" fill-rule="evenodd">
        <g id="Group-2" transform="translate(2.000000, 2.000000)">
            <path d="M27.7499999,0 C27.0023743,0 26.3963413,0.597748262 26.3963413,1.33510886 L26.3963413,12.0159797 C26.3963413,12.7533403 27.0023743,13.3510886 27.7499999,13.3510886 C28.4976255,13.3510886 29.1036584,12.7533403 29.1036584,12.0159797 L29.1036584,1.33510886 C29.1036584,0.597748262 28.4976255,0 27.7499999,0 Z M9.09489316,7.63515378 C8.74846486,7.63515378 8.38627322,7.74995312 8.12195108,8.01065315 C7.59330005,8.53205988 7.59332035,9.38762434 8.12195108,9.90901105 L15.7785822,17.4607205 C16.3072197,17.9821139 17.1746644,17.9821273 17.7033154,17.4607205 C18.2319664,16.9393138 18.2319529,16.0837694 17.7033154,15.5623626 L10.0466843,8.01065315 C9.78236218,7.74995979 9.44132145,7.63515378 9.09489316,7.63515378 Z M46.4051066,7.63515378 C46.0586783,7.63515378 45.7176375,7.74995979 45.4533154,8.01065315 L37.7966843,15.5623626 C37.2680468,16.0837694 37.2680333,16.9393138 37.7966843,17.4607205 C38.3253354,17.9821273 39.19278,17.9821139 39.7214175,17.4607205 L47.3780486,9.90901105 C47.9066794,9.38762434 47.9066997,8.53205988 47.3780486,8.01065315 C47.1137265,7.74995312 46.7515349,7.63515378 46.4051066,7.63515378 Z M1.3536584,26.0346294 C0.606046463,26.0346294 0,26.6323576 0,27.3697383 C0,28.1071189 0.606053232,28.7048471 1.3536584,28.7048471 L12.1829267,28.7048471 C12.930532,28.7048471 13.5365852,28.1071189 13.5365852,27.3697383 C13.536592,26.6323576 12.9305455,26.0346294 12.1829267,26.0346294 L1.3536584,26.0346294 Z M43.317073,26.0346294 C42.5694542,26.0346294 41.9634077,26.6323576 41.9634145,27.3697383 C41.9634145,28.1071189 42.5694677,28.7048471 43.317073,28.7048471 L54.1463413,28.7048471 C54.8939466,28.7048471 55.4999999,28.1071189 55.4999999,27.3697383 C55.4999999,26.6323576 54.8939534,26.0346294 54.1463413,26.0346294 L43.317073,26.0346294 Z M16.7515243,36.8823889 C16.405096,36.8823889 16.0429111,37.0180359 15.7785822,37.2787159 L8.12195108,44.8304254 C7.59331358,45.3518522 7.59330005,46.2073899 8.12195108,46.7288167 C8.65059535,47.2502435 9.51805358,47.2501767 10.0466843,46.7288167 L17.7033154,39.1771072 C18.2319461,38.6556805 18.2319732,37.8001427 17.7033154,37.2787159 C17.4389933,37.0180359 17.0979525,36.8823889 16.7515243,36.8823889 Z M38.7484755,36.8823889 C38.4020472,36.8823889 38.0610064,37.0180359 37.7966843,37.2787159 C37.2680265,37.8001427 37.2680536,38.6556805 37.7966843,39.1771072 L45.4533154,46.7288167 C45.9819461,47.2501767 46.8494044,47.2502435 47.3780486,46.7288167 C47.9066997,46.2073899 47.9066861,45.3518522 47.3780486,44.8304254 L39.7214175,37.2787159 C39.4570886,37.0180359 39.0949038,36.8823889 38.7484755,36.8823889 L38.7484755,36.8823889 Z M27.7499999,41.3883813 C27.0023675,41.3883813 26.3963616,41.9861095 26.3963413,42.7234901 L26.3963413,53.404361 C26.3963278,54.1417416 27.002381,54.7394698 27.7499999,54.7394698 C28.4976187,54.7394698 29.1036652,54.1417416 29.1036584,53.404361 L29.1036584,42.7234901 C29.1036313,41.9861095 28.4976255,41.3883813 27.7499999,41.3883813 Z" id="Shape" fill="#FFFFFF" fill-rule="nonzero"></path>
            <path d="M27.152439,17 C21.5454297,17 17,21.483142 17,27.0133231 C17,32.5434775 21.5454297,37.0266395 27.152439,37.0266395 C32.7594416,37.0266395 37.304878,32.5434775 37.304878,27.0133231 C37.304878,21.483142 32.7594416,17 27.152439,17 Z" id="Path" fill="#FFFFFF"></path>
            <path d="M33.828126,35.4890368 C33.8032772,35.3863706 33.7189861,35.3068044 33.6115516,35.2846378 C33.2605013,35.2120715 32.9101818,35.1238719 32.5710686,35.0216724 C29.0515517,33.9649107 26.3306072,31.4521559 25.1052199,28.1281049 C23.8795889,24.8038206 24.350011,21.2116709 26.3963834,18.2726181 C26.5941994,17.9884194 26.8085813,17.7091207 27.0339259,17.4421887 C27.1031128,17.3602891 27.1165116,17.2475896 27.0687629,17.1528567 C27.020527,17.0583571 26.9199137,16.9986241 26.810043,17.0000241 C25.6214417,17.0149573 24.4450211,17.2165564 23.3131823,17.5992213 C17.6135478,19.5267788 14.6136633,25.5362505 16.6261731,30.9952914 C18.638683,36.4545656 24.9132506,39.3278187 30.6131287,37.4002611 C31.744724,37.0175963 32.7922717,36.4671655 33.7272691,35.7636689 C33.813509,35.6988025 33.8529748,35.591703 33.828126,35.4890368 Z" id="Shape" fill="#1A212E" fill-rule="nonzero"></path>
        </g>
    </g>
</svg>