<?xml version="1.0" encoding="UTF-8"?>
<svg width="60px" height="60px" viewBox="0 0 60 60" version="1.1" xmlns="http://www.w3.org/2000/svg" xmlns:xlink="http://www.w3.org/1999/xlink">
    <!-- Generator: Sketch 42 (36781) - http://www.bohemiancoding.com/sketch -->
    <title>coffee</title>
    <desc>Created with Sketch.</desc>
    <defs></defs>
    <g id="Page-1" stroke="none" stroke-width="1" fill="none" fill-rule="evenodd">
        <path d="M16.966195,6.91474422 C16.5365847,6.96971939 16.1686822,7.24914203 16.0004345,7.64824104 C15.8321869,8.04734006 15.8890147,8.50581567 16.14961,8.85175986 C16.9539798,9.96887249 17.1517602,10.5213732 17.1371081,11.1495921 C17.1208281,11.8476713 16.739686,12.7617422 16.1875907,13.4474244 C15.7628234,13.9718285 15.843595,14.7412838 16.367999,15.166051 C16.892403,15.5908183 17.6618584,15.5100467 18.0866256,14.9856427 C18.9273159,13.9415321 19.5348582,12.6221312 19.5678729,11.2065632 C19.5977895,9.92397019 19.0640197,8.73214193 18.1246063,7.42748365 C17.8650952,7.05295641 17.4179141,6.85502376 16.966195,6.91474422 Z M26.0815627,6.91474422 C25.6519524,6.96971939 25.2840499,7.24914203 25.1158023,7.64824104 C24.9475547,8.04734006 25.0043824,8.50581567 25.2649777,8.85175986 C26.0693475,9.96887249 26.2671279,10.5213732 26.2524759,11.1495921 C26.2361958,11.8476713 25.8550538,12.7617422 25.3029584,13.4474244 C24.8781912,13.9718285 24.9589628,14.7412838 25.4833668,15.166051 C26.0077708,15.5908183 26.7772261,15.5100467 27.2019934,14.9856427 C28.0426837,13.9415321 28.650226,12.6221312 28.6832406,11.2065632 C28.7131573,9.92397019 28.1793875,8.73214193 27.2399741,7.42748365 C26.980463,7.05295641 26.5332818,6.85502376 26.0815627,6.91474422 Z M35.1969305,6.91474422 C34.7673202,6.96971939 34.3994177,7.24914203 34.23117,7.64824104 C34.0629224,8.04734006 34.1197502,8.50581567 34.3803455,8.85175986 C35.1847153,9.96887249 35.3824957,10.5213732 35.3678436,11.1495921 C35.3515636,11.8476713 34.9704215,12.7617422 34.4183262,13.4474244 C34.1435499,13.7866544 34.0706232,14.2467071 34.2270168,14.6542853 C34.3834104,15.0618634 34.7453645,15.3550462 35.1765343,15.4233944 C35.6077041,15.4917427 36.0425849,15.3248727 36.3173611,14.9856427 C37.1580514,13.9415321 37.7655937,12.6221312 37.7986084,11.2065632 C37.828525,9.92397019 37.2947552,8.73214193 36.3553418,7.42748365 C36.0958307,7.05295641 35.6486496,6.85502376 35.1969305,6.91474422 Z M8.02174041,19.0875582 C6.02279817,19.0875582 4.37559331,20.7347599 4.37559331,22.7337053 L4.37559331,28.8106171 C4.37559331,33.6145983 7.01170418,37.9094253 11.098177,40.9454505 C15.1846499,43.9814148 20.7427824,45.8259703 26.8601671,45.8259703 C32.9775517,45.8259703 38.5356843,43.9814148 42.6221571,40.9454505 C44.8839916,39.2650318 46.7103613,37.2121215 47.8824839,34.887529 L51.7755056,34.887529 C55.1210923,34.887529 57.8524174,32.1562002 57.8524174,28.8106171 C57.8524174,25.4650159 55.1210923,22.7337053 51.7755056,22.7337053 L49.3447408,22.7337053 C49.3447408,20.7347599 47.6975362,19.0875582 45.6985937,19.0875582 L8.02174041,19.0875582 Z M8.02174041,21.518323 L45.6985937,21.518323 C46.3929374,21.518323 46.9139761,22.0393635 46.9139761,22.7337053 L46.9139761,28.8106171 C46.9139761,32.7301037 44.7903513,36.3063663 41.1788906,38.9894445 C37.5674299,41.6725226 32.4894323,43.3952055 26.8601671,43.3952055 C21.2309018,43.3952055 16.1529043,41.6725226 12.5414436,38.9894445 C8.92998289,36.3063663 6.80635804,32.7301037 6.80635804,28.8106171 L6.80635804,22.7337053 C6.80635804,22.0393635 7.32739732,21.518323 8.02174041,21.518323 Z M49.3447408,25.1644701 L51.7755056,25.1644701 C53.8164935,25.1644701 55.4216527,26.7696073 55.4216527,28.8106171 C55.4216527,30.8516088 53.8164935,32.4567642 51.7755056,32.4567642 L48.8320014,32.4567642 C49.1698637,31.2859542 49.3447408,30.0640647 49.3447408,28.8106171 L49.3447408,25.1644701 Z M5.47703358,49.4721174 C5.04275731,49.492387 4.65229382,49.7428305 4.45276122,50.1290862 C4.25322863,50.5153419 4.2749491,50.9787121 4.50973885,51.344609 C4.7445286,51.7105058 5.15670755,51.9233255 5.59097567,51.9028821 L43.8755202,51.9028821 C44.3138307,51.9090809 44.7215252,51.6787956 44.9424894,51.300207 C45.1634537,50.9216183 45.1634537,50.4533811 44.9424894,50.0747925 C44.7215252,49.6962038 44.3138307,49.4659186 43.8755202,49.4721174 L5.59097567,49.4721174 C5.55301586,49.4703362 5.51499339,49.4703362 5.47703358,49.4721174 Z M48.1293585,49.4721174 C47.4581216,49.4721174 46.9139761,50.0162629 46.9139761,50.6874997 C46.9139761,51.3587366 47.4581216,51.9028821 48.1293585,51.9028821 C48.8005953,51.9028821 49.3447408,51.3587366 49.3447408,50.6874997 C49.3447408,50.0162629 48.8005953,49.4721174 48.1293585,49.4721174 Z" id="Coffee" fill="#FFFFFF" fill-rule="nonzero"></path>
    </g>
</svg>