<?xml version="1.0" encoding="UTF-8"?>
<svg width="1000px" height="395px" viewBox="0 0 1000 395" version="1.1" xmlns="http://www.w3.org/2000/svg" xmlns:xlink="http://www.w3.org/1999/xlink">
    <!-- Generator: Sketch 42 (36781) - http://www.bohemiancoding.com/sketch -->
    <title>dreem-logo-gray</title>
    <desc>Created with Sketch.</desc>
    <defs></defs>
    <g id="Page-1" stroke="none" stroke-width="1" fill="none" fill-rule="evenodd">
        <g id="Dreem-Symbol-&amp;-Word-Vertical-Full-Colour-White-(1)" transform="translate(134.000000, 85.000000)" fill-rule="nonzero" fill="#EBEBEB">
            <g id="Layer_1">
                <g id="Group">
                    <path d="M745.897103,153.322112 C745.897103,147.750614 749.763858,144.168937 754.403965,144.168937 C759.044071,144.168937 762.910826,147.750614 762.910826,153.322112 C762.910826,158.893609 759.044071,162.475286 754.403965,162.475286 C749.763858,162.87325 745.897103,158.893609 745.897103,153.322112 Z M760.977449,153.322112 C760.977449,148.944506 757.884044,145.362829 754.017289,145.362829 C750.150534,145.362829 747.057129,148.546542 747.057129,153.322112 C747.057129,157.699717 750.150534,161.281394 754.017289,161.281394 C757.884044,161.281394 760.977449,158.097681 760.977449,153.322112 Z M750.923885,148.546542 L754.017289,148.546542 C755.950667,148.546542 757.497369,149.342471 757.497369,151.730255 C757.497369,152.924148 756.724018,154.11804 755.563991,154.516004 L757.884044,158.495645 L756.337342,158.495645 L754.403965,154.913968 L752.083911,154.913968 L752.083911,158.097681 L750.537209,158.097681 L750.537209,148.546542 L750.923885,148.546542 Z M754.017289,153.322112 C755.563991,153.322112 756.337342,152.924148 756.337342,151.730255 C756.337342,150.536363 755.950667,149.740435 754.017289,149.740435 L752.470587,149.740435 L752.470587,153.322112 L754.017289,153.322112 Z" id="Shape"></path>
                    <path d="M51.4278459,150.934327 C65.7348406,150.934327 76.948431,154.913968 85.0686172,162.475286 C93.1888034,170.036604 97.4422343,180.781635 97.4422343,193.516487 C97.4422343,205.45541 93.1888034,215.404513 84.2952662,223.363795 C76.17508,230.925113 66.1215161,234.50679 54.1345746,234.50679 L2.70672873,234.50679 C1.1600266,234.50679 0,233.312898 0,231.721041 L0,153.720076 C0,152.128219 1.1600266,150.934327 2.70672873,150.934327 L51.4278459,150.934327 Z M55.2946012,222.169903 C63.4147874,222.169903 69.9882714,219.384154 75.4017289,214.210621 C80.4285108,208.639123 83.1352396,201.873733 83.1352396,193.516487 C83.1352396,184.363312 80.4285108,177.199958 74.6283778,171.628461 C69.2149204,166.056963 61.8680853,163.271214 52.5878725,163.271214 L13.5336436,163.271214 L13.5336436,222.169903 L55.2946012,222.169903 Z" id="Shape"></path>
                    <path d="M250.17907,234.904754 L240.898857,234.904754 C240.125506,234.904754 239.352155,234.50679 238.578804,233.710862 L217.311649,203.067625 L176.710718,203.067625 L176.710718,232.119005 C176.710718,233.710862 175.550692,234.904754 174.00399,234.904754 L165.883804,234.904754 C164.337101,234.904754 163.177075,233.710862 163.177075,232.119005 L163.177075,153.720076 C163.177075,152.128219 164.337101,150.934327 165.883804,150.934327 L227.365213,150.934327 C235.872075,150.934327 242.445559,153.322112 247.472341,158.097681 C252.499123,162.87325 254.819176,169.240676 254.819176,177.199958 C254.819176,184.363312 252.885798,189.93481 249.019043,194.312415 C245.538963,198.292056 240.125506,200.679841 233.938697,201.873733 L252.885798,230.129185 C253.65915,232.51697 252.499123,234.904754 250.17907,234.904754 L250.17907,234.904754 Z M225.04516,190.332774 C235.485399,190.332774 240.512181,185.955169 240.512181,177.199958 C240.512181,168.046784 234.712048,163.271214 223.498458,163.271214 L176.710718,163.271214 L176.710718,189.93481 L225.04516,189.93481 L225.04516,190.332774 Z" id="Shape"></path>
                    <path d="M403.689256,234.904754 L324.034097,234.904754 C322.487394,234.904754 321.327368,233.710862 321.327368,232.119005 L321.327368,153.720076 C321.327368,152.128219 322.487394,150.934327 324.034097,150.934327 L400.595852,150.934327 C402.142554,150.934327 403.302581,152.128219 403.302581,153.720076 L403.302581,160.88343 C403.302581,162.475286 402.142554,163.669179 400.595852,163.669179 L334.861011,163.669179 L334.861011,185.15924 L379.715373,185.15924 C381.262075,185.15924 382.422102,186.353133 382.422102,187.944989 L382.422102,195.108343 C382.422102,196.7002 381.262075,197.894092 379.715373,197.894092 L334.861011,197.894092 L334.861011,222.567867 L404.075932,222.567867 C405.622634,222.567867 406.782661,223.761759 406.782661,225.353616 L406.782661,232.51697 C406.395985,233.710862 405.235958,234.904754 403.689256,234.904754" id="Shape"></path>
                    <path d="M554.106039,234.904754 L474.064203,234.904754 C472.517501,234.904754 471.357475,233.710862 471.357475,232.119005 L471.357475,153.720076 C471.357475,152.128219 472.517501,150.934327 474.064203,150.934327 L550.625959,150.934327 C552.172661,150.934327 553.332687,152.128219 553.332687,153.720076 L553.332687,160.88343 C553.332687,162.475286 552.172661,163.669179 550.625959,163.669179 L484.891118,163.669179 L484.891118,185.15924 L529.74548,185.15924 C531.292182,185.15924 532.452209,186.353133 532.452209,187.944989 L532.452209,195.108343 C532.452209,196.7002 531.292182,197.894092 529.74548,197.894092 L484.891118,197.894092 L484.891118,222.567867 L554.106039,222.567867 C555.652741,222.567867 556.812767,223.761759 556.812767,225.353616 L556.812767,232.51697 C556.812767,233.710862 555.652741,234.904754 554.106039,234.904754" id="Shape"></path>
                    <path d="M731.590108,234.904754 L723.083246,234.904754 C721.536544,234.904754 720.376518,233.710862 720.376518,232.119005 L720.376518,170.036604 L719.989842,170.036604 L680.548938,220.97601 C679.002236,222.965831 676.682182,222.567867 675.13548,220.97601 L636.081251,170.036604 L635.694576,170.036604 L635.694576,232.119005 C635.694576,233.710862 634.534549,234.904754 632.987847,234.904754 L624.867661,234.904754 C623.320959,234.904754 622.160932,233.710862 622.160932,232.119005 L622.160932,153.720076 C622.160932,152.128219 623.320959,150.934327 624.867661,150.934327 L637.627954,150.934327 C638.401305,150.934327 639.174656,151.332291 639.561331,152.128219 L677.842209,201.873733 L716.123087,152.128219 C716.509762,151.332291 717.283113,150.934327 718.056464,150.934327 L730.816757,150.934327 C732.363459,150.934327 733.523486,152.128219 733.523486,153.720076 L733.523486,232.119005 C733.910161,233.710862 732.750135,234.904754 731.590108,234.904754" id="Shape"></path>
                    <g transform="translate(275.597881, 0.000000)" id="Shape">
                        <path d="M73.1834499,73.3313256 L5.51523163,73.3313256 C2.42182737,73.3313256 0.101774171,75.7191103 0.101774171,78.504859 C0.101774171,81.6885719 2.42182737,83.6783925 5.51523163,83.6783925 L73.1834499,83.6783925 C76.2768541,83.6783925 78.5969073,81.2906078 78.5969073,78.504859 C78.5969073,75.7191103 76.2768541,73.3313256 73.1834499,73.3313256"></path>
                        <path d="M73.1834499,0.105929367 L5.51523163,0.105929367 C2.42182737,0.105929367 0.101774171,2.49371403 0.101774171,5.2794628 C0.101774171,8.46317568 2.42182737,10.4529962 5.51523163,10.4529962 L73.1834499,10.4529962 C76.2768541,10.4529962 78.5969073,8.06521157 78.5969073,5.2794628 C78.5969073,2.49371403 76.2768541,0.105929367 73.1834499,0.105929367"></path>
                        <path d="M171.01236,73.3313256 L103.344141,73.3313256 C100.250737,73.3313256 97.930684,75.7191103 97.930684,78.504859 C97.930684,81.6885719 100.250737,83.6783925 103.344141,83.6783925 L171.01236,83.6783925 C174.105764,83.6783925 176.425817,81.2906078 176.425817,78.504859 C176.425817,75.7191103 174.105764,73.3313256 171.01236,73.3313256"></path>
                        <path d="M103.344141,10.8509603 L171.01236,10.8509603 C174.105764,10.8509603 176.425817,8.46317568 176.425817,5.67742691 C176.425817,2.49371403 174.105764,0.503893477 171.01236,0.503893477 L103.344141,0.503893477 C100.250737,0.503893477 97.930684,2.89167814 97.930684,5.67742691 C97.930684,8.46317568 100.250737,10.8509603 103.344141,10.8509603"></path>
                        <path d="M73.1834499,36.7186275 L37.2226253,36.7186275 C34.1292211,36.7186275 31.8091679,39.1064121 31.8091679,41.8921609 C31.8091679,45.0758738 34.1292211,47.0656943 37.2226253,47.0656943 L73.1834499,47.0656943 C76.2768541,47.0656943 78.5969073,44.6779097 78.5969073,41.8921609 C78.5969073,39.1064121 76.2768541,36.7186275 73.1834499,36.7186275"></path>
                        <path d="M103.344141,47.4636585 L139.304966,47.4636585 C142.39837,47.4636585 144.718423,45.0758738 144.718423,42.290125 C144.718423,39.1064121 142.39837,37.1165916 139.304966,37.1165916 L103.344141,37.1165916 C100.250737,37.1165916 97.930684,39.5043763 97.930684,42.290125 C97.930684,45.0758738 100.250737,47.4636585 103.344141,47.4636585"></path>
                    </g>
                </g>
            </g>
        </g>
    </g>
</svg>