<?xml version="1.0" encoding="UTF-8"?>
<svg width="23px" height="23px" viewBox="0 0 23 23" version="1.1" xmlns="http://www.w3.org/2000/svg" xmlns:xlink="http://www.w3.org/1999/xlink">
    <!-- Generator: Sketch 42 (36781) - http://www.bohemiancoding.com/sketch -->
    <title>email-small</title>
    <desc>Created with Sketch.</desc>
    <defs></defs>
    <g id="Page-1" stroke="none" stroke-width="1" fill="none" fill-rule="evenodd">
        <path d="M19.7221867,4 L3.2778133,4 C2.02189898,4 1,5.03364494 1,6.30399506 L1,15.6516668 C1,16.9220169 2.02189898,17.9556619 3.2778133,17.9556619 L19.7221867,17.9556619 C20.978101,17.9556619 22,16.9220169 22,15.6516668 L22,6.30399506 C22,5.03340242 20.978101,4 19.7221867,4 Z M16.0678549,10.1497266 L20.8011509,6.80844872 L20.8011509,15.2214261 L16.0678549,10.1497266 Z M3.2778133,5.21262898 L19.7221867,5.21262898 C20.0257353,5.21262898 20.2990729,5.34092513 20.4956841,5.5456169 L12.7774936,10.9937164 C12.6019821,11.1237102 12.0346867,11.4613061 11.5246963,11.4613061 C10.8168958,11.4613061 10.3304028,11.065504 10.3296835,11.065019 L2.47098785,5.58660376 C2.66879795,5.35935709 2.95532289,5.21262898 3.2778133,5.21262898 Z M2.1988491,15.2410706 L2.1988491,6.86932269 L6.93358376,10.1681586 L2.1988491,15.2410706 Z M3.2778133,16.7427904 C3.04044118,16.7427904 2.82249041,16.6625143 2.64410166,16.5303378 L7.9327046,10.8637226 L9.58136189,12.0123247 C9.74512468,12.1447438 10.4653932,12.6739351 11.5246963,12.6739351 C12.5235774,12.6739351 13.3949009,12.0404577 13.4764226,11.9788562 L15.0737692,10.8513537 L20.3662084,16.5218494 C20.1859015,16.6586339 19.964594,16.7427904 19.7221867,16.7427904 L3.2778133,16.7427904 Z" id="Shape" fill="#FFFFFF" fill-rule="nonzero"></path>
    </g>
</svg>