<?xml version="1.0" encoding="UTF-8"?>
<svg width="184px" height="154px" viewBox="0 0 184 154" version="1.1" xmlns="http://www.w3.org/2000/svg" xmlns:xlink="http://www.w3.org/1999/xlink">
    <!-- Generator: Sketch 42 (36781) - http://www.bohemiancoding.com/sketch -->
    <title>Slice 2</title>
    <desc>Created with Sketch.</desc>
    <defs></defs>
    <g id="Page-1" stroke="none" stroke-width="1" fill="none" fill-rule="evenodd">
        <g id="mail" transform="translate(16.000000, 22.000000)" fill-rule="nonzero" fill="#FFFFFF">
            <g id="Capa_1">
                <g id="Group">
                    <g transform="translate(26.739766, 53.008484)" id="Shape">
                        <path d="M98.4381433,32.439544 C97.8249415,32.439544 97.2117398,32.2153075 96.7331433,31.7618515 L68.0472661,4.86344008 C67.0452047,3.9266299 66.9953509,2.34700848 67.9375877,1.34541888 C68.8798246,0.333863203 70.4502193,0.289015907 71.4622515,1.23579215 L100.148129,28.1342036 C101.15019,29.0710138 101.200044,30.6506352 100.257807,31.6522248 C99.7642544,32.1754433 99.1061842,32.439544 98.4381433,32.439544 Z"></path>
                        <path d="M2.68394737,32.439544 C2.02089181,32.439544 1.35783626,32.1754433 0.864283626,31.6522248 C-0.0779532164,30.6506352 -0.0280994152,29.0710138 0.973961988,28.1342036 L29.6698099,1.23579215 C30.6768567,0.298981972 32.2572222,0.338846235 33.1944737,1.34541888 C34.1367105,2.34700848 34.0868567,3.9266299 33.0847953,4.86344008 L4.38894737,31.7618515 C3.91035088,32.2153075 3.29714912,32.439544 2.68394737,32.439544 Z"></path>
                    </g>
                    <path d="M142.143158,110.45787 L12.4634503,110.45787 C5.59359649,110.45787 0,104.87189 0,98.0002874 L0,13.054526 C0,6.18292365 5.59359649,0.596943796 12.4634503,0.596943796 L142.143158,0.596943796 C149.013012,0.596943796 154.606608,6.18292365 154.606608,13.054526 L154.606608,98.0002874 C154.606608,104.87189 149.013012,110.45787 142.143158,110.45787 Z M12.4634503,5.57997667 C8.34054094,5.57997667 4.98538012,8.93355779 4.98538012,13.054526 L4.98538012,98.0002874 C4.98538012,102.121256 8.34054094,105.474837 12.4634503,105.474837 L142.143158,105.474837 C146.266067,105.474837 149.621228,102.121256 149.621228,98.0002874 L149.621228,13.054526 C149.621228,8.93355779 146.266067,5.57997667 142.143158,5.57997667 L12.4634503,5.57997667 Z" id="Shape"></path>
                    <path d="M77.3033041,68.0472768 C73.9880263,68.0472768 70.6727485,66.9460265 68.1501462,64.748509 L4.1378655,8.93355779 C3.10090643,8.03162884 2.99122807,6.45699046 3.89358187,5.41553659 C4.80590643,4.37906575 6.37630117,4.28438812 7.41326023,5.17635101 L71.4255409,60.9863192 C74.6111988,63.7618685 79.9954094,63.7618685 83.1760819,60.9863192 L147.108596,5.2660456 C148.14057,4.36411665 149.710965,4.46377731 150.628275,5.50523118 C151.530629,6.54668505 151.425936,8.1163404 150.388977,9.02325239 L86.456462,64.743526 C83.9288743,66.9460265 80.6185819,68.0472768 77.3033041,68.0472768 Z" id="Shape"></path>
                </g>
            </g>
        </g>
    </g>
</svg>