<?xml version="1.0" encoding="UTF-8"?>
<svg width="67px" height="67px" viewBox="0 0 67 67" version="1.1" xmlns="http://www.w3.org/2000/svg" xmlns:xlink="http://www.w3.org/1999/xlink">
    <!-- Generator: Sketch 42 (36781) - http://www.bohemiancoding.com/sketch -->
    <title>left-button</title>
    <desc>Created with Sketch.</desc>
    <defs></defs>
    <g id="Page-1" stroke="none" stroke-width="1" fill="none" fill-rule="evenodd">
        <g id="left-arrow" fill-rule="nonzero" fill="#FFFFFF">
            <path d="M37.4051839,19.225377 C37.7802689,18.8531037 38.4112258,18.8531037 38.7863108,19.225377 C38.9694918,19.4086053 39.0712591,19.655818 39.0712591,19.9175727 C39.0712591,20.176419 38.9694918,20.4236317 38.7863108,20.6097684 L25.7775496,33.6218835 L38.7863108,46.6339987 C38.9694918,46.8172269 39.0741667,47.0644397 39.0741667,47.3291027 C39.0741667,47.587949 38.9723995,47.8322533 38.7921261,48.0154816 C38.608945,48.2016183 38.361796,48.3034117 38.0972012,48.3034117 C37.835514,48.3034117 37.5912726,48.2016183 37.4080916,48.01839 L23.7102208,34.3140792 C23.5270398,34.1308509 23.4223649,33.8836382 23.4223649,33.6218835 C23.4223649,33.3601288 23.5241321,33.1129161 23.7102208,32.9325962 L37.4051839,19.225377 Z" id="Shape"></path>
        </g>
    </g>
</svg>
