<?xml version="1.0" encoding="UTF-8"?>
<svg width="206px" height="156px" viewBox="0 0 206 156" version="1.1" xmlns="http://www.w3.org/2000/svg" xmlns:xlink="http://www.w3.org/1999/xlink">
    <!-- Generator: Sketch 42 (36781) - http://www.bohemiancoding.com/sketch -->
    <title>Slice</title>
    <desc>Created with Sketch.</desc>
    <defs></defs>
    <g id="Page-1" stroke="none" stroke-width="1" fill="none" fill-rule="evenodd">
        <g id="logo" transform="translate(8.000000, 32.000000)" fill-rule="nonzero">
            <g id="Group">
                
                <g transform="translate(54.000000, 0.000000)" id="Shape">
                    <path d="M33.3265955,21.520486 L2.93311382,21.520486 C1.54369752,21.520486 0.50163529,22.5625482 0.50163529,23.7782875 C0.50163529,25.1677038 1.54369752,26.036089 2.93311382,26.036089 L33.3265955,26.036089 C34.7160118,26.036089 35.758074,24.9940268 35.758074,23.7782875 C35.758074,22.5625482 34.7160118,21.520486 33.3265955,21.520486" fill="#FFFFFF"></path>
                    <path d="M33.3265955,-10.436089 L2.93311382,-10.436089 C1.54369752,-10.436089 0.50163529,-9.39402678 0.50163529,-8.17828751 C0.50163529,-6.78887121 1.54369752,-5.92048602 2.93311382,-5.92048602 L33.3265955,-5.92048602 C34.7160118,-5.92048602 35.758074,-6.96254825 35.758074,-8.17828751 C35.758074,-9.39402678 34.7160118,-10.436089 33.3265955,-10.436089" fill="#FFFFFF"></path>
                    <path d="M77.2668862,21.520486 L46.8734045,21.520486 C45.4839882,21.520486 44.441926,22.5625482 44.441926,23.7782875 C44.441926,25.1677038 45.4839882,26.036089 46.8734045,26.036089 L77.2668862,26.036089 C78.6563025,26.036089 79.6983647,24.9940268 79.6983647,23.7782875 C79.6983647,22.5625482 78.6563025,21.520486 77.2668862,21.520486" fill="#FFFFFF"></path>
                    <path d="M46.8734045,-5.74680898 L77.2668862,-5.74680898 C78.6563025,-5.74680898 79.6983647,-6.78887121 79.6983647,-8.00461048 C79.6983647,-9.39402678 78.6563025,-10.262412 77.2668862,-10.262412 L46.8734045,-10.262412 C45.4839882,-10.262412 44.441926,-9.22034974 44.441926,-8.00461048 C44.441926,-6.78887121 45.4839882,-5.74680898 46.8734045,-5.74680898" fill="#FFFFFF"></path>
                    <path d="M33.3265955,5.5421985 L17.174631,5.5421985 C15.7852147,5.5421985 14.7431524,6.58426073 14.7431524,7.8 C14.7431524,9.18941631 15.7852147,10.0578015 17.174631,10.0578015 L33.3265955,10.0578015 C34.7160118,10.0578015 35.758074,9.01573927 35.758074,7.8 C35.758074,6.58426073 34.7160118,5.5421985 33.3265955,5.5421985" fill="#EA7055"></path>
                    <path d="M46.8734045,10.2314785 L63.025369,10.2314785 C64.4147853,10.2314785 65.4568476,9.18941631 65.4568476,7.97367704 C65.4568476,6.58426073 64.4147853,5.71587554 63.025369,5.71587554 L46.8734045,5.71587554 C45.4839882,5.71587554 44.441926,6.75793777 44.441926,7.97367704 C44.441926,9.18941631 45.4839882,10.2314785 46.8734045,10.2314785" fill="#EA7055"></path>
                </g>
            </g>
        </g>
    </g>
</svg>
