<?xml version="1.0" encoding="UTF-8"?>
  <svg width="46px" height="22px" viewBox="0 0 46 22" version="1.1" xmlns="http://www.w3.org/2000/svg" xmlns:xlink="http://www.w3.org/1999/xlink">
      <title>Rythm-Logo</title>
      <g id="Page-1" stroke="none" stroke-width="1" fill="none" fill-rule="evenodd">
          <g id="Rythm-Horizontal" fill-rule="nonzero">
              <g id="Layer_1">
                  <g id="Group">
                      <g id="Shape">
                          <path d="M19.4,18.6 L2,18.6 C1.3,18.6 0.6,19.2 0.6,19.9 C0.6,20.6 1.2,21.2 2,21.2 L19.3,21.2 C20.1,21.2 20.7,20.6 20.7,19.9 C20.7,19.1 20.1,18.6 19.4,18.6" fill="#FFFFFF"></path>
                          <path d="M19.4,0.4 L2,0.4 C1.3,0.4 0.6,1 0.6,1.7 C0.6,2.4 1.2,3 2,3 L19.3,3 C20.1,3 20.7,2.4 20.7,1.7 C20.7,1 20.1,0.4 19.4,0.4" fill="#FFFFFF"></path>
                          <path d="M44.3,18.6 L27,18.6 C26.3,18.6 25.6,19.2 25.6,19.9 C25.6,20.6 26.2,21.2 27,21.2 L44.3,21.2 C45.1,21.2 45.7,20.6 45.7,19.9 C45.7,19.1 45.1,18.6 44.3,18.6" fill="#FFFFFF"></path>
                          <path d="M27,3.1 L44.3,3.1 C45.1,3.1 45.7,2.5 45.7,1.8 C45.7,1.1 45.1,0.5 44.3,0.5 L27,0.5 C26.3,0.5 25.6,1.1 25.6,1.8 C25.6,2.5 26.3,3.1 27,3.1" fill="#FFFFFF"></path>
                          <path d="M19.4,9.5 L10.2,9.5 C9.4,9.5 8.8,10.1 8.8,10.8 C8.8,11.5 9.4,12.1 10.2,12.1 L19.4,12.1 C20.2,12.1 20.8,11.5 20.8,10.8 C20.7,10.1 20.1,9.5 19.4,9.5" fill="#EA7055"></path>
                          <path d="M27,12.1 L36.2,12.1 C36.9,12.1 37.6,11.5 37.6,10.8 C37.6,10.1 37,9.5 36.2,9.5 L27,9.5 C26.3,9.5 25.6,10.1 25.6,10.8 C25.6,11.6 26.3,12.1 27,12.1" fill="#EA7055"></path>
                      </g>
                  </g>
              </g>
          </g>
      </g>
  </svg>
