<?xml version="1.0" encoding="UTF-8"?>
<svg width="72px" height="70px" viewBox="0 0 72 70" version="1.1" xmlns="http://www.w3.org/2000/svg" xmlns:xlink="http://www.w3.org/1999/xlink">
    <!-- Generator: Sketch 42 (36781) - http://www.bohemiancoding.com/sketch -->
    <title>medal</title>
    <desc>Created with Sketch.</desc>
    <defs></defs>
    <g id="Page-1" stroke="none" stroke-width="1" fill="none" fill-rule="evenodd" fill-opacity="0.200000003">
        <g id="medal" transform="translate(-1.000000, -1.000000)" fill="#E2E2E2">
            <path d="M59.705,37.625 L73.013,55.604 L58.542,57.306 L52.957,71.014 L39.092,52.284 L37.912,52.354 C37.296,52.397 36.677,52.406 36.066,52.365 L34.898,52.297 L21.049,71.014 L15.462,57.306 L0.994,55.604 L14.144,37.827 L13.824,37.093 C12.381,33.785 11.649,30.287 11.649,26.699 C11.649,12.526 22.964,0.997 36.873,0.997 C50.783,0.997 62.099,12.526 62.099,26.699 C62.099,30.227 61.398,33.657 60.017,36.895 L59.705,37.625 Z M52.481,67.201 L57.232,55.539 L69.543,54.088 L58.787,39.554 L57.736,41.127 C54.295,46.274 49.138,49.974 43.213,51.545 L41.277,52.06 L52.481,67.201 Z M4.46,54.088 L16.769,55.539 L21.523,67.201 L32.696,52.1 L30.738,51.599 C24.805,50.079 19.619,46.419 16.135,41.292 L15.081,39.74 L4.46,54.088 Z M36.873,2.908 C23.997,2.908 13.522,13.581 13.522,26.7 C13.522,39.819 23.997,50.492 36.873,50.492 C49.749,50.492 60.224,39.819 60.224,26.7 C60.224,13.581 49.749,2.908 36.873,2.908 Z M36.873,41.693 C28.76,41.693 22.16,34.967 22.16,26.7 C22.16,18.433 28.76,11.708 36.873,11.708 C44.988,11.708 51.589,18.433 51.589,26.7 C51.589,34.967 44.988,41.693 36.873,41.693 Z M36.873,13.616 C29.793,13.616 24.034,19.485 24.034,26.699 C24.034,33.914 29.793,39.783 36.873,39.783 C43.954,39.783 49.715,33.914 49.715,26.699 C49.715,19.485 43.954,13.616 36.873,13.616 Z" id="Shape"></path>
        </g>
    </g>
</svg>