<?xml version="1.0" encoding="UTF-8"?>
<svg width="1072px" height="395px" viewBox="0 0 1072 395" version="1.1" xmlns="http://www.w3.org/2000/svg" xmlns:xlink="http://www.w3.org/1999/xlink">
    <!-- Generator: Sketch 42 (36781) - http://www.bohemiancoding.com/sketch -->
    <title>nsf-logo-gray</title>
    <desc>Created with Sketch.</desc>
    <defs></defs>
    <g id="Page-1" stroke="none" stroke-width="1" fill="none" fill-rule="evenodd">
        <g id="NSF-Logo" transform="translate(98.000000, 50.000000)" fill-rule="nonzero" fill="#EBEBEB">
            <g id="Layer_1">
                <g id="Group">
                    <path d="M420.583166,97.7832168 L417.139151,97.7832168 C415.279382,97.7144522 413.557375,97.3018648 411.973127,96.4079254 C411.559846,96.2016317 411.146564,95.995338 410.802162,95.7890443 C409.286795,94.8951049 407.771429,94.0699301 406.256062,93.1759907 C404.947336,92.4195804 404.120772,91.3193473 404.051892,89.8065268 C404.051892,89.0501166 404.258533,88.4312354 404.947336,88.018648 C408.11583,85.955711 411.146564,83.7552448 414.521699,82.1048951 C417.00139,80.9358974 419.687722,80.4545455 422.374054,80.3170163 C424.509344,80.1794872 426.713514,80.1107226 428.848803,79.9731935 C430.984093,79.8356643 433.119382,79.5606061 435.254672,79.0104895 C440.214054,77.7039627 445.173436,76.4662005 450.063938,75.0909091 C456.125405,73.3717949 461.911351,70.8962704 467.077375,67.3205128 C467.421776,67.0454545 467.835058,66.8391608 468.179459,66.5641026 C469.212664,65.7389277 469.488185,64.8449883 468.937143,63.6072261 C468.661622,62.9195804 468.31722,62.2319347 467.835058,61.6818182 C466.939614,60.6503497 465.97529,59.6188811 464.942085,58.6561772 C463.151197,57.0058275 461.084788,55.7680653 458.949498,54.5990676 C456.056525,53.0174825 453.025792,51.6421911 449.995058,50.3356643 C447.377606,49.1666667 444.760154,47.997669 442.211583,46.7599068 C439.525251,45.45338 437.04556,43.9405594 434.703629,42.0151515 C433.119382,40.7086247 431.672896,39.2645688 430.36417,37.6829837 C428.09112,34.9324009 428.022239,31.9067599 429.468726,28.8123543 C430.29529,27.0244755 431.672896,25.6491841 433.326023,24.4801865 C435.116911,23.1736597 437.18332,22.2797203 439.31861,21.6608392 C441.798301,20.9044289 444.346873,20.4230769 446.964324,20.0792541 C448.617452,19.8729604 450.270579,19.8041958 451.923707,19.8041958 C455.574363,19.8041958 458.811737,20.9044289 461.773591,22.967366 C467.835058,27.2307692 473.483243,31.9067599 478.924788,36.9265734 C483.608649,41.3275058 488.154749,45.8659674 492.563089,50.541958 C495.04278,53.1550117 497.522471,55.7680653 500.071042,58.3811189 C501.035367,59.4125874 501.930811,60.4440559 502.688494,61.6818182 C505.237066,65.8076923 504.203861,70.2086247 501.448649,73.1655012 C500.346564,74.3344988 499.037838,75.2972028 497.660232,76.1223776 C492.976371,79.0792541 487.879228,81.2109557 482.575444,82.7925408 C478.235985,84.0990676 473.827645,84.993007 469.350425,85.8181818 C463.357838,86.9184149 457.365251,87.7435897 451.441544,89.1188811 C448.961853,89.6689977 446.482162,90.3566434 444.002471,91.044289 C442.004942,91.5944056 440.145174,92.488345 438.285405,93.3822844 C436.907799,94.0699301 435.530193,94.8263403 434.152587,95.513986 C431.879537,96.6142191 429.399846,97.1643357 426.920154,97.5769231 C424.784865,97.8519814 422.649575,97.9207459 420.583166,97.7832168 Z" id="Shape"></path>
                    <path d="M393.995367,0.0687645688 C406.669344,0.481351981 416.794749,5.63869464 423.958301,16.2284382 C425.88695,19.1165501 426.782394,22.2797203 427.126795,25.6491841 C427.471197,28.537296 427.264556,31.3566434 426.575753,34.1759907 C425.95583,36.8578089 424.647104,39.1958042 422.856216,41.2587413 C419.481081,45.1095571 415.348263,47.516317 410.38888,48.6853147 C407.082625,49.5104895 403.776371,49.7167832 400.401236,49.4417249 C390.964633,48.5477855 382.974517,44.5594406 376.362008,37.8892774 C372.986873,34.451049 370.576062,30.462704 369.542857,25.7179487 C368.578533,21.52331 368.716293,17.3286713 370.0939,13.2715618 C371.471506,9.21445221 374.020077,6.12004662 377.739614,3.91958042 C380.494826,2.26923077 383.52556,1.37529138 386.625174,0.756410256 C389.035985,0.275058275 391.446795,9.98506833e-15 393.995367,0.0687645688 Z" id="Shape"></path>
                    <path d="M428.573282,71.3088578 C425.404788,71.3088578 422.236293,71.3776224 419.067799,71.3088578 C415.899305,71.2400932 412.730811,71.0337995 409.562317,70.8275058 C406.669344,70.6212121 403.776371,70.4149184 400.883398,70.1398601 C398.128185,69.8648019 395.372973,69.5897436 392.686641,69.1771562 C389.518147,68.7645688 386.349653,68.2832168 383.181158,67.7331002 C381.25251,67.3892774 379.323861,66.97669 377.464093,66.4265734 C374.846641,65.6701632 372.43583,64.5011655 370.0939,62.988345 C363.205869,58.3811189 357.488803,52.6048951 352.873822,45.7284382 C351.427336,43.5967366 350.18749,41.3962704 348.809884,39.1958042 C348.603243,38.7832168 348.396602,38.3706294 348.258842,37.958042 C348.052201,37.2703963 348.258842,36.7890443 348.809884,36.4452214 C349.085405,36.3076923 349.360927,36.1701632 349.636448,36.1013986 C351.702857,35.4825175 353.700386,35.4825175 355.629035,36.4452214 C356.386718,36.7890443 357.144402,37.2703963 357.833205,37.7517483 C359.00417,38.5081585 360.175135,39.2645688 361.3461,40.020979 C362.310425,40.6398601 363.274749,41.0524476 364.376834,41.3962704 C366.374363,42.0151515 368.096371,43.04662 369.405097,44.7657343 C370.23166,45.7972028 371.058224,46.8286713 371.953668,47.7913753 C373.193514,49.0979021 374.433359,50.4044289 375.810965,51.5734266 C378.979459,54.3240093 382.767876,55.7680653 386.969575,55.8368298 C390.20695,55.9055944 393.375444,55.7680653 396.612819,55.3554779 C401.227799,54.8053613 405.84278,53.8426573 410.38888,53.0174825 C414.72834,52.1923077 419.067799,51.4358974 423.476139,51.1608392 C430.43305,50.6794872 437.18332,51.6421911 443.658069,54.4615385 C446.619923,55.7680653 449.444015,57.2121212 452.199228,58.8624709 C453.645714,59.7564103 455.092201,60.6503497 456.607568,61.4755245 C458.054054,62.3006993 458.742857,63.5384615 458.811737,65.1888112 C458.880618,65.7389277 458.811737,66.2890443 458.742857,66.8391608 C458.673977,67.7331002 458.191815,68.2832168 457.365251,68.6958042 C457.15861,68.7645688 457.020849,68.9020979 456.814208,68.9020979 C455.436602,69.1771562 454.127876,69.7272727 452.819151,70.2086247 C450.47722,71.0337995 447.997529,71.2400932 445.517838,71.3088578 C443.382548,71.3776224 441.316139,71.3088578 439.180849,71.2400932 C436.838919,71.1713287 434.496988,71.1025641 432.086178,71.3088578 C430.915212,71.3776224 429.675367,71.3088578 428.504402,71.3088578 C428.573282,71.2400932 428.573282,71.3088578 428.573282,71.3088578 Z" id="Shape"></path>
                    <path d="M14.4648649,138.285548 C14.3271042,138.698135 14.1893436,138.904429 14.1893436,139.110723 L14.1893436,140.623543 L14.1893436,175.968531 C14.1893436,178.237762 14.2582239,180.506993 14.6715058,182.707459 C15.3603089,186.420746 17.2200772,187.727273 20.6640927,188.208625 C21.628417,188.346154 22.5927413,188.346154 23.4881853,188.414918 C23.7637066,188.414918 24.1081081,188.483683 24.3836293,188.552448 C24.6591506,189.171329 24.6591506,189.721445 24.4525097,190.202797 C24.314749,190.340326 24.314749,190.340326 24.2458687,190.340326 C24.1769884,190.340326 24.1769884,190.409091 24.1081081,190.409091 C16.6001544,190.409091 9.02332046,190.409091 1.5153668,190.477855 C1.23984556,190.477855 1.03320463,190.477855 0.757683398,190.409091 C0.688803089,190.409091 0.551042471,190.340326 0.413281853,190.271562 C0.0688803089,189.721445 0.206640927,189.171329 0.344401544,188.552448 C1.37760618,188.483683 2.41081081,188.414918 3.37513514,188.277389 C4.20169884,188.208625 4.95938224,188.071096 5.71706564,187.864802 C7.64571429,187.38345 9.02332046,186.145688 9.57436293,184.22028 C9.91876448,183.051282 10.1254054,181.882284 10.1942857,180.713287 C10.3320463,178.65035 10.4009266,176.587413 10.4009266,174.524476 L10.4009266,141.586247 C10.4009266,139.592075 10.3320463,137.597902 10.1942857,135.60373 C10.1254054,134.572261 9.91876448,133.540793 9.64324324,132.509324 C9.09220077,130.377622 7.71459459,129.002331 5.51042471,128.589744 C4.27057915,128.314685 2.96185328,128.245921 1.65312741,128.108392 C1.23984556,128.039627 0.826563707,128.039627 0.482162162,127.970862 C0.137760618,127.214452 0.137760618,127.214452 0.344401544,126.114219 C0.688803089,126.045455 1.10208494,125.97669 1.44648649,125.97669 L13.9827027,125.97669 C14.8092664,125.97669 15.3603089,126.251748 15.9113514,126.870629 C18.8732046,130.583916 21.9039382,134.297203 24.8657915,138.01049 C35.0600772,150.594406 45.2543629,163.247086 55.4486486,175.831002 C55.7241699,176.24359 56.0685714,176.587413 56.4818533,177 C56.6196139,176.724942 56.7573745,176.518648 56.7573745,176.381119 C56.8262548,175.899767 56.8262548,175.487179 56.8262548,175.005828 L56.8262548,140.073427 C56.8262548,137.941725 56.7573745,135.741259 56.412973,133.609557 C55.7241699,129.89627 53.9332819,128.589744 50.4203861,128.108392 C49.5249421,127.970862 48.6294981,127.970862 47.7340541,127.902098 C47.4585328,127.902098 47.1830116,127.833333 46.83861,127.764569 C46.5630888,127.145688 46.5630888,126.595571 46.83861,125.97669 C47.2518919,125.97669 47.5962934,125.907925 48.0095753,125.907925 C58.1349807,125.770396 69.4313514,125.839161 70.7400772,126.045455 C71.0155985,126.7331 71.0155985,126.7331 70.8778378,127.62704 C70.6023166,127.970862 70.1201544,127.902098 69.7757529,127.902098 C68.3981467,128.039627 67.0894208,128.108392 65.7118147,128.38345 C63.3010039,128.796037 61.7856371,130.308858 61.2345946,132.715618 C61.0279537,133.609557 60.8213127,134.572261 60.7524324,135.534965 C60.6146718,137.666667 60.5457915,139.729604 60.5457915,141.861305 L60.5457915,190.134033 C60.5457915,190.752914 60.6146718,191.440559 60.3391506,192.059441 C59.6503475,192.265734 59.0304247,192.19697 58.3416216,192.128205 C58.0661004,191.853147 57.7216988,191.509324 57.4461776,191.165501 C44.5655598,175.280886 31.7538224,159.465035 18.8732046,143.58042 C17.7022394,142.136364 16.5312741,140.692308 15.3603089,139.248252 C15.153668,139.041958 14.8781467,138.7669 14.4648649,138.285548 Z" id="Shape"></path>
                    <path d="M601.807259,187.245921 C600.085251,188.483683 599.189807,190.202797 598.501004,192.128205 C597.949961,192.403263 597.398919,192.334499 596.847876,192.265734 C596.434595,191.784382 596.572355,191.165501 596.572355,190.684149 L596.572355,180.16317 L596.572355,170.811189 L596.572355,169.229604 C597.192278,168.679487 597.74332,168.885781 598.363243,169.02331 C598.432124,169.504662 598.501004,169.986014 598.569884,170.398601 C598.983166,173.768065 600.016371,176.931235 601.807259,179.888112 C604.011429,183.463869 607.042162,185.939394 611.03722,187.177156 C614.481236,188.277389 617.994131,188.689977 621.575907,188.071096 C623.711197,187.727273 625.639846,186.902098 627.361853,185.664336 C630.117066,183.670163 631.701313,180.988345 632.114595,177.618881 C632.321236,175.831002 631.976834,174.111888 631.15027,172.530303 C630.599228,171.43007 629.841544,170.536131 629.014981,169.642191 C627.912896,168.473193 626.67305,167.51049 625.295444,166.547786 C623.366795,165.172494 621.300386,164.003497 619.233977,162.972028 C615.996602,161.321678 612.759228,159.671329 609.590734,158.089744 C606.146718,156.301865 603.184865,153.963869 600.911815,150.800699 C599.396448,148.668998 598.294363,146.399767 597.812201,143.855478 C596.159073,135.60373 600.291892,129.346154 606.215598,126.389277 C609.797375,124.601399 613.585792,124.120047 617.511969,124.463869 C621.231506,124.807692 624.537761,126.045455 627.568494,128.177156 C627.775135,128.38345 628.050656,128.520979 628.395058,128.658508 C628.670579,128.452214 628.9461,128.245921 629.221622,128.039627 C630.117066,127.214452 630.736988,126.182984 631.219151,125.082751 C631.356911,124.738928 631.494672,124.32634 631.632432,123.982517 C632.527876,123.707459 632.527876,123.707459 633.492201,123.982517 C633.629961,125.907925 633.561081,127.833333 633.561081,129.758741 L633.561081,135.4662 L633.561081,141.311189 L633.561081,147.018648 C632.872278,147.362471 632.321236,147.293706 631.701313,147.156177 C631.425792,146.537296 631.356911,145.987179 631.288031,145.368298 C631.01251,142.892774 630.392587,140.417249 629.497143,138.079254 C628.670579,136.085082 627.568494,134.228438 626.053127,132.646853 C623.986718,130.446387 621.369266,129.208625 618.476293,128.658508 C616.409884,128.245921 614.274595,128.108392 612.208185,128.658508 C608.69529,129.483683 606.077838,131.477855 604.906873,134.916084 C603.735907,138.285548 604.218069,141.448718 606.62888,144.199301 C607.386564,145.09324 608.350888,145.918415 609.315212,146.606061 C610.899459,147.706294 612.483707,148.737762 614.136834,149.700466 C618.063012,151.832168 622.058069,153.82634 626.053127,155.889277 C627.017452,156.370629 628.050656,156.851981 629.014981,157.402098 C631.563552,158.846154 633.905483,160.634033 635.696371,162.972028 C638.520463,166.685315 639.553668,170.811189 639.002625,175.418415 C638.589344,178.719114 637.556139,181.744755 635.55861,184.426573 C632.596757,188.346154 628.601699,190.752914 623.848958,191.853147 C619.233977,192.884615 614.687876,192.472028 610.210656,190.821678 C608.557529,190.202797 606.904402,189.377622 605.251274,188.621212 C604.080309,188.071096 603.047104,187.520979 601.807259,187.245921 Z" id="Shape"></path>
                    <path d="M116.407722,232.561772 C116.201081,234.143357 116.132201,249.340326 116.269961,255.87296 C116.269961,256.216783 116.338842,256.560606 116.407722,256.973193 C116.752124,257.041958 117.096525,257.110723 117.440927,257.110723 C120.058378,257.110723 122.67583,257.179487 125.293282,257.041958 C126.739768,256.973193 128.186255,256.7669 129.632741,256.491841 C132.043552,256.01049 133.558919,254.566434 134.041081,252.090909 C134.247722,250.853147 134.385483,249.615385 134.523243,248.377622 C134.592124,247.965035 134.592124,247.483683 134.661004,247.071096 C135.556448,246.796037 135.556448,246.796037 136.451892,247.002331 C136.520772,247.13986 136.589653,247.277389 136.589653,247.414918 L136.589653,270.588578 C136.589653,270.726107 136.520772,270.863636 136.451892,271.001166 C135.900849,271.276224 135.349807,271.138695 134.729884,271.06993 C134.661004,270.657343 134.592124,270.244755 134.592124,269.900932 C134.454363,268.525641 134.316602,267.219114 134.109961,265.912587 C133.69668,263.574592 132.181313,262.061772 129.839382,261.58042 C128.530656,261.305361 127.15305,261.030303 125.844324,261.030303 C123.020232,260.961538 120.196139,260.961538 117.440927,260.961538 C117.165405,260.961538 116.958764,261.030303 116.614363,261.030303 C116.545483,261.374126 116.476602,261.717949 116.476602,262.061772 C116.476602,268.731935 116.476602,275.402098 116.545483,282.072261 C116.545483,283.447552 116.752124,284.754079 117.096525,286.060606 C117.854208,289.498834 119.851737,290.461538 122.331429,290.805361 C123.433514,291.011655 124.535598,291.011655 125.637683,291.08042 C125.913205,291.08042 126.257606,291.149184 126.533127,291.149184 C126.808649,291.768065 126.670888,292.318182 126.670888,292.799534 C126.533127,292.937063 126.464247,292.937063 126.464247,293.005828 C126.395367,293.005828 126.395367,293.074592 126.326486,293.074592 C117.578687,293.074592 108.830888,293.074592 100.083089,293.143357 L98.4299614,293.143357 C98.3610811,293.143357 98.2233205,293.074592 98.1544402,293.074592 C98.0855598,293.074592 98.0855598,293.005828 98.0166795,292.937063 C97.7411583,292.455711 97.8100386,291.905594 98.0166795,291.286713 C98.3610811,291.217949 98.6366023,291.149184 98.9810039,291.149184 C100.083089,291.011655 101.185174,291.011655 102.287259,290.805361 C102.907181,290.736597 103.458224,290.530303 104.009266,290.324009 C105.455753,289.842657 106.488958,288.811189 107.04,287.367133 C107.522162,286.129371 107.797683,284.891608 107.866564,283.585082 C108.004324,281.45338 108.073205,279.390443 108.073205,277.258741 L108.073205,244.045455 C108.073205,242.051282 108.004324,240.05711 107.866564,238.062937 C107.797683,237.031469 107.591042,236 107.315521,234.968531 C106.764479,232.974359 105.386873,231.736597 103.389344,231.18648 C102.149498,230.842657 100.909653,230.773893 99.6698069,230.773893 C99.1876448,230.773893 98.7743629,230.705128 98.2922008,230.636364 C98.2233205,230.636364 98.1544402,230.567599 98.0166795,230.43007 C97.8100386,229.948718 97.8100386,229.398601 98.0855598,228.848485 C98.3610811,228.77972 98.567722,228.710956 98.8432432,228.710956 L100.35861,228.710956 L146.439537,228.710956 C147.12834,228.710956 147.817143,228.77972 148.505946,228.77972 C148.988108,229.948718 148.781467,231.117716 148.850347,232.286713 C148.988108,233.455711 148.988108,234.555944 149.056988,235.724942 C149.125869,236.825175 149.263629,237.925408 149.263629,239.025641 C149.33251,240.194639 149.47027,241.294872 149.33251,242.463869 C148.712587,242.738928 148.161544,242.670163 147.610502,242.601399 C147.19722,242.257576 147.19722,241.707459 147.059459,241.226107 C146.783938,240.194639 146.508417,239.094406 146.164015,238.062937 C145.268571,235.174825 143.339923,233.59324 140.378069,232.974359 C138.724942,232.630536 137.002934,232.493007 135.280927,232.493007 C129.4261,232.424242 123.640154,232.493007 117.785328,232.493007 C117.234286,232.424242 116.821004,232.493007 116.407722,232.561772 Z" id="Shape"></path>
                    <path d="M398.679228,259.17366 L398.679228,257.660839 C399.023629,257.592075 399.368031,257.52331 399.712432,257.52331 C406.118301,257.52331 412.59305,257.454545 418.998919,257.52331 C422.305174,257.52331 425.611429,258.073427 428.711042,259.242424 C429.950888,259.723776 431.190734,260.342657 432.361699,261.030303 C437.04556,263.987179 439.38749,268.319347 439.800772,273.751748 C439.938533,276.158508 439.800772,278.565268 439.043089,280.903263 C437.803243,284.754079 435.461313,287.710956 432.017297,289.773893 C429.744247,291.149184 427.333436,291.974359 424.715985,292.524476 C422.649575,292.937063 420.583166,293.143357 418.447876,293.143357 L399.919073,293.143357 C399.574672,293.143357 399.23027,293.143357 398.885869,293.074592 C398.472587,292.59324 398.610347,292.111888 398.679228,291.561772 C399.023629,291.493007 399.299151,291.424242 399.643552,291.355478 C400.538996,291.217949 401.43444,291.149184 402.329884,290.94289 C403.70749,290.599068 404.602934,289.705128 405.016216,288.329837 C405.291737,287.435897 405.429498,286.541958 405.498378,285.716783 C405.567259,284.822844 405.636139,283.928904 405.636139,283.034965 C405.636139,277.121212 405.567259,271.207459 405.567259,265.293706 C405.567259,264.537296 405.429498,263.780886 405.291737,263.09324 C404.809575,260.892774 403.63861,259.861305 401.36556,259.517483 C400.814517,259.448718 400.263475,259.448718 399.712432,259.379953 C399.436911,259.311189 399.16139,259.242424 398.679228,259.17366 Z M412.937452,260.68648 C412.937452,261.305361 412.868571,261.855478 412.868571,262.405594 L412.868571,283.172494 C412.868571,284.203963 412.868571,285.166667 412.937452,286.198135 C412.937452,286.679487 413.075212,287.160839 413.144093,287.710956 C413.419614,289.155012 414.383938,289.980186 415.899305,290.048951 C418.034595,290.18648 420.101004,290.18648 422.167413,289.773893 C426.162471,288.879953 428.917683,286.541958 430.36417,282.759907 C430.570811,282.278555 430.708571,281.728438 430.846332,281.178322 C431.604015,278.565268 431.535135,275.952214 431.466255,273.270396 C431.397375,271.620047 431.052973,269.969697 430.501931,268.388112 C429.537606,265.637529 427.884479,263.437063 425.198147,262.061772 C423.820541,261.305361 422.305174,260.892774 420.720927,260.755245 C418.447876,260.480186 416.174826,260.548951 413.970656,260.548951 C413.695135,260.480186 413.350734,260.617716 412.937452,260.68648 Z" id="Shape"></path>
                    <path d="M297.425174,191.853147 C290.399382,191.784382 284.957838,189.652681 280.480618,185.182984 C277.587645,182.294872 275.865637,178.787879 275.383475,174.662005 C274.901313,170.467366 275.796757,166.547786 278.138687,163.040793 C280.96278,158.708625 284.957838,155.820513 289.91722,154.445221 C297.769575,152.175991 305.070888,153.482517 311.476757,158.708625 C314.576371,161.184149 316.71166,164.416084 317.675985,168.2669 C319.191351,174.111888 317.813745,179.40676 314.025328,184.013986 C310.719073,188.071096 306.379614,190.409091 301.282471,191.440559 C299.767104,191.715618 298.251737,191.784382 297.425174,191.853147 Z M310.443552,172.530303 C310.305792,171.155012 310.168031,169.710956 309.96139,168.335664 C309.548108,166.066434 308.721544,163.934732 307.412819,161.940559 C305.690811,159.39627 303.34888,157.677156 300.387027,156.851981 C298.940541,156.508159 297.494054,156.370629 296.047568,156.439394 C292.05251,156.645688 288.815135,158.227273 286.473205,161.527972 C285.784402,162.490676 285.302239,163.522145 284.820077,164.553613 C283.30471,167.923077 283.029189,171.498834 283.442471,175.143357 C283.717992,177.618881 284.406795,179.956876 285.646641,182.088578 C287.230888,184.907925 289.503938,186.970862 292.603552,187.864802 C295.358764,188.689977 298.182857,188.689977 300.938069,187.864802 C304.106564,186.970862 306.448494,184.907925 308.101622,182.019814 C309.685869,179.200466 310.374672,175.968531 310.443552,172.530303 Z" id="Shape"></path>
                    <path d="M681.570656,256.01049 C687.494363,256.148019 692.729266,258.004662 697.068726,262.061772 C699.892819,264.674825 701.821467,267.769231 702.579151,271.551282 C703.681236,276.708625 702.648031,281.45338 699.617297,285.648019 C696.517683,289.911422 692.315985,292.662005 687.218842,293.831002 C680.19305,295.481352 673.649421,294.312354 667.794595,289.980186 C664.143938,287.298368 661.664247,283.791375 660.631042,279.390443 C659.253436,273.614219 660.562162,268.456876 664.350579,263.918415 C667.656834,259.93007 671.927413,257.592075 676.955676,256.560606 C678.471042,256.285548 680.05529,256.216783 681.570656,256.01049 Z M695.277838,274.98951 C695.208958,274.2331 695.140077,273.064103 694.933436,271.895105 C694.520154,269.006993 693.55583,266.393939 691.764942,264.055944 C690.111815,261.855478 687.976525,260.342657 685.290193,259.655012 C683.292664,259.17366 681.364015,259.036131 679.297606,259.379953 C675.853591,259.93007 673.098378,261.649184 671.100849,264.468531 C670.274286,265.637529 669.654363,266.875291 669.172201,268.181818 C667.932355,271.688811 667.656834,275.333333 668.276757,278.977855 C668.690039,281.247086 669.378842,283.447552 670.618687,285.441725 C672.202934,287.986014 674.407104,289.842657 677.300077,290.736597 C678.402162,291.08042 679.573127,291.217949 680.675212,291.286713 C682.948263,291.424242 685.152432,291.08042 687.287722,290.048951 C690.111815,288.742424 691.971583,286.541958 693.280309,283.722611 C694.657915,281.178322 695.140077,278.29021 695.277838,274.98951 Z" id="Shape"></path>
                    <path d="M215.526486,275.402098 C215.457606,280.215618 213.666718,284.272727 210.429344,287.77972 C207.46749,290.94289 203.816834,293.005828 199.615135,293.968531 C192.658224,295.550117 186.252355,294.381119 180.466409,290.18648 C177.160154,287.77972 174.749344,284.685315 173.509498,280.765734 C171.71861,275.264569 172.545174,270.038462 175.851429,265.293706 C179.019923,260.68648 183.566023,257.867133 189.007568,256.698135 C194.724633,255.460373 200.166178,256.148019 205.332201,258.967366 C208.500695,260.68648 211.049266,263.024476 212.909035,266.118881 C214.631042,268.938228 215.595367,272.032634 215.526486,275.402098 Z M180.466409,275.677156 C180.53529,276.433566 180.60417,277.602564 180.810811,278.840326 C181.224093,281.659674 182.188417,284.272727 183.910425,286.541958 C185.632432,288.811189 187.767722,290.255245 190.522934,290.94289 C192.313822,291.355478 194.173591,291.493007 196.033359,291.217949 C199.201853,290.805361 201.819305,289.43007 203.885714,286.954545 C205.05668,285.579254 205.883243,283.928904 206.503166,282.20979 C207.674131,278.771562 207.949653,275.264569 207.32973,271.688811 C206.916448,269.41958 206.227645,267.219114 204.987799,265.224942 C203.472432,262.749417 201.406023,260.961538 198.650811,259.93007 C197.548726,259.517483 196.446641,259.311189 195.275676,259.242424 C190.109653,258.898601 185.907954,260.617716 183.152741,265.156177 C182.739459,265.843823 182.326178,266.668998 181.981776,267.425408 C181.017452,269.969697 180.60417,272.582751 180.466409,275.677156 Z" id="Shape"></path>
                    <path d="M736.674903,259.104895 C736.606023,258.829837 736.606023,258.623543 736.606023,258.417249 C736.606023,258.142191 736.674903,257.935897 736.674903,257.592075 C736.950425,257.52331 737.157066,257.454545 737.363707,257.454545 L746.249266,257.454545 C747.00695,257.454545 747.420232,257.867133 747.902394,258.348485 C750.657606,261.305361 753.412819,264.331002 756.168031,267.287879 C760.645251,272.101399 765.122471,276.914918 769.599691,281.728438 C769.944093,282.072261 770.288494,282.416084 770.632896,282.759907 C771.115058,282.553613 771.046178,282.20979 771.046178,281.934732 L771.046178,276.846154 L771.046178,266.737762 C771.046178,265.568765 770.977297,264.331002 770.770656,263.162005 C770.219614,260.755245 769.048649,259.655012 766.500077,259.448718 C765.742394,259.379953 764.98471,259.311189 764.364788,259.242424 C763.951506,258.692308 764.158147,258.210956 764.158147,257.660839 C764.502548,257.592075 764.778069,257.52331 765.053591,257.52331 L780.138378,257.52331 C780.4139,257.52331 780.689421,257.592075 780.964942,257.592075 C781.240463,258.142191 781.240463,258.623543 781.033822,259.104895 C780.55166,259.448718 779.931737,259.379953 779.449575,259.448718 C778.829653,259.517483 778.140849,259.586247 777.520927,259.792541 C776.07444,260.136364 775.110116,261.099068 774.765714,262.543124 C774.490193,263.780886 774.283552,265.018648 774.214672,266.25641 C774.145792,267.562937 774.145792,268.869464 774.145792,270.175991 L774.145792,292.59324 C774.145792,293.212121 774.214672,293.762238 774.008031,294.381119 C773.456988,294.656177 772.905946,294.518648 772.354903,294.518648 C771.941622,294.518648 771.734981,294.24359 771.459459,293.968531 C770.770656,293.212121 770.081853,292.524476 769.39305,291.768065 C762.298378,284.066434 755.203707,276.364802 748.040154,268.66317 C747.695753,268.319347 747.489112,267.837995 746.869189,267.700466 C746.593668,268.044289 746.662548,268.456876 746.662548,268.800699 L746.662548,278.702797 L746.662548,283.791375 C746.731429,284.960373 746.869189,286.060606 746.938069,287.229604 C746.938069,287.504662 747.07583,287.710956 747.14471,287.986014 C747.626873,289.911422 748.935598,290.94289 750.864247,291.217949 C751.690811,291.355478 752.586255,291.424242 753.343938,291.493007 C753.619459,292.180653 753.619459,292.180653 753.481699,293.074592 C753.275058,293.143357 753.068417,293.212121 752.792896,293.212121 L737.294826,293.212121 C737.088185,293.212121 736.881544,293.143357 736.674903,293.143357 C736.399382,292.662005 736.537143,292.180653 736.537143,291.630536 C737.225946,291.355478 737.983629,291.355478 738.672432,291.286713 C741.565405,290.94289 742.66749,289.980186 743.149653,287.160839 C743.356293,286.060606 743.425174,284.960373 743.425174,283.86014 L743.425174,270.038462 C743.425174,268.525641 743.425174,267.012821 743.356293,265.5 C743.356293,264.674825 743.218533,263.918415 743.080772,263.09324 C742.59861,260.892774 741.427645,259.792541 739.223475,259.517483 C738.741313,259.448718 738.19027,259.448718 737.708108,259.379953 C737.501467,259.311189 737.088185,259.242424 736.674903,259.104895 Z" id="Shape"></path>
                    <path d="M321.808803,259.17366 L321.808803,257.592075 C322.222085,257.52331 322.635367,257.454545 322.979768,257.454545 L330.694363,257.454545 C332.34749,257.454545 332.071969,257.248252 333.311815,258.554779 C335.998147,261.44289 338.684479,264.399767 341.370811,267.287879 C345.848031,272.101399 350.325251,276.914918 354.802471,281.728438 C355.146873,282.072261 355.422394,282.484848 355.904556,282.691142 C356.317838,282.416084 356.248958,282.072261 356.248958,281.728438 L356.248958,274.2331 C356.248958,271.482517 356.248958,268.731935 356.180077,265.981352 C356.180077,265.018648 356.042317,264.055944 355.904556,263.162005 C355.422394,260.824009 354.251429,259.723776 351.840618,259.448718 C351.220695,259.379953 350.669653,259.379953 350.04973,259.311189 C349.843089,259.311189 349.636448,259.17366 349.429807,259.104895 C349.360927,258.898601 349.292046,258.623543 349.292046,258.417249 C349.292046,258.142191 349.360927,257.935897 349.360927,257.592075 C350.807413,257.317016 352.185019,257.52331 353.562625,257.454545 L357.764324,257.454545 L361.966023,257.454545 C363.343629,257.454545 364.790116,257.385781 366.098842,257.454545 C366.374363,258.073427 366.374363,258.554779 366.167722,259.036131 C365.68556,259.379953 365.065637,259.242424 364.583475,259.379953 C363.963552,259.448718 363.274749,259.517483 362.654826,259.723776 C361.27722,260.067599 360.312896,260.961538 359.968494,262.33683 C359.692973,263.505828 359.555212,264.674825 359.417452,265.912587 C359.348571,266.737762 359.348571,267.494172 359.348571,268.319347 L359.348571,292.524476 C359.348571,293.143357 359.417452,293.693473 359.210811,294.312354 C359.00417,294.381119 358.797529,294.381119 358.590888,294.449883 C357.695444,294.587413 357.006641,294.312354 356.386718,293.555944 C352.185019,288.948718 347.98332,284.410256 343.712741,279.80303 C340.199846,276.020979 336.68695,272.170163 333.174054,268.388112 C332.898533,268.044289 332.691892,267.631702 332.140849,267.562937 C331.796448,267.700466 331.865328,267.975524 331.865328,268.250583 L331.865328,284.479021 C331.865328,285.441725 332.003089,286.404429 332.20973,287.298368 C332.623012,289.705128 333.931737,290.874126 336.342548,291.149184 C337.100232,291.217949 337.857915,291.286713 338.546718,291.355478 C338.96,291.905594 338.89112,292.386946 338.684479,292.937063 C338.408958,293.005828 338.133436,293.074592 337.857915,293.074592 L322.635367,293.074592 C322.359846,293.074592 322.153205,293.005828 321.877683,293.005828 C321.602162,292.455711 321.671042,291.974359 321.808803,291.424242 C322.084324,291.355478 322.290965,291.286713 322.497606,291.286713 C323.048649,291.217949 323.599691,291.149184 324.150734,291.08042 C326.630425,290.805361 327.80139,289.705128 328.283552,287.229604 C328.421313,286.335664 328.559073,285.441725 328.559073,284.547786 C328.627954,281.865967 328.627954,279.252914 328.627954,276.571096 L328.627954,266.325175 C328.627954,265.156177 328.490193,263.987179 328.283552,262.886946 C327.87027,260.68648 326.630425,259.586247 324.426255,259.311189 C324.012973,259.242424 323.599691,259.242424 323.25529,259.242424 C322.842008,259.311189 322.428726,259.242424 321.808803,259.17366 Z" id="Shape"></path>
                    <path d="M359.279691,164.691142 C359.210811,165.310023 359.141931,165.722611 359.141931,166.066434 C359.141931,171.43007 359.141931,176.793706 359.210811,182.157343 C359.210811,183.120047 359.348571,184.151515 359.555212,185.114219 C359.899614,186.833333 361.001699,187.933566 362.792587,188.277389 C363.48139,188.414918 364.170193,188.483683 364.858996,188.552448 C365.272278,188.621212 365.61668,188.689977 365.961081,188.689977 C366.236602,189.308858 366.167722,189.79021 366.029961,190.271562 C365.75444,190.340326 365.478919,190.409091 365.272278,190.409091 C362.241544,190.54662 350.463012,190.477855 349.223166,190.271562 C348.947645,189.79021 349.016525,189.308858 349.223166,188.621212 C349.636448,188.552448 350.04973,188.552448 350.531892,188.483683 C351.151815,188.414918 351.840618,188.346154 352.460541,188.208625 C354.113668,187.864802 355.146873,186.833333 355.491274,185.251748 C355.766795,184.082751 355.835676,182.913753 356.042317,181.675991 C356.111197,181.125874 356.111197,180.575758 356.111197,180.025641 L356.111197,164.9662 C356.111197,163.590909 355.973436,162.284382 355.835676,160.909091 C355.835676,160.565268 355.697915,160.221445 355.629035,159.877622 C355.215753,157.952214 353.975907,156.98951 352.047259,156.714452 C351.151815,156.576923 350.256371,156.508159 349.360927,156.370629 C349.016525,155.889277 349.085405,155.407925 349.292046,154.857809 C349.636448,154.789044 349.911969,154.72028 350.256371,154.72028 L358.522008,154.72028 C359.279691,154.72028 359.830734,154.995338 360.312896,155.545455 C363.274749,158.777389 366.236602,161.940559 369.198456,165.172494 C373.469035,169.77972 377.808494,174.455711 382.079073,179.062937 C382.423475,179.40676 382.630116,179.888112 383.181158,180.025641 C383.52556,179.888112 383.45668,179.613054 383.45668,179.337995 L383.45668,163.522145 C383.45668,162.353147 383.250039,161.115385 382.974517,159.946387 C382.561236,157.952214 381.25251,156.98951 379.323861,156.714452 C378.497297,156.576923 377.601853,156.508159 376.77529,156.439394 C376.430888,155.751748 376.430888,155.751748 376.706409,154.857809 C376.981931,154.857809 377.257452,154.789044 377.532973,154.789044 C382.285714,154.651515 391.997838,154.72028 393.375444,154.926573 C393.650965,155.339161 393.582085,155.820513 393.444324,156.439394 C393.168803,156.508159 392.893282,156.576923 392.617761,156.576923 C391.928958,156.645688 391.240154,156.714452 390.551351,156.851981 C388.691583,157.12704 387.451737,158.227273 387.038456,160.083916 C386.900695,160.840326 386.762934,161.596737 386.694054,162.284382 C386.625174,163.728438 386.556293,165.172494 386.556293,166.61655 L386.556293,189.652681 C386.556293,190.271562 386.625174,190.959207 386.349653,191.578089 C385.72973,191.784382 385.178687,191.715618 384.421004,191.646853 C384.076602,191.30303 383.66332,190.821678 383.250039,190.409091 C375.810965,182.363636 368.440772,174.318182 361.001699,166.272727 C360.588417,165.791375 360.175135,165.241259 359.279691,164.691142 Z" id="Shape"></path>
                    <path d="M764.295907,180.782051 C764.502548,181.882284 764.158147,187.314685 763.744865,190.271562 C763.469344,190.340326 763.193822,190.409091 762.918301,190.477855 L761.885097,190.477855 L732.059923,190.477855 C731.50888,190.477855 730.957838,190.477855 730.406795,190.409091 C730.062394,189.79021 730.200154,189.308858 730.337915,188.689977 C730.888958,188.621212 731.37112,188.621212 731.853282,188.552448 C732.542085,188.483683 733.230888,188.414918 733.919691,188.208625 C735.228417,187.864802 736.123861,187.039627 736.537143,185.7331 C736.812664,184.701632 736.950425,183.670163 737.157066,182.638695 C737.225946,182.019814 737.225946,181.469697 737.225946,180.850816 L737.225946,164.141026 C737.225946,162.972028 737.088185,161.871795 736.950425,160.702797 C736.950425,160.427739 736.812664,160.083916 736.743784,159.808858 C736.261622,158.089744 735.090656,157.058275 733.368649,156.783217 C732.404324,156.645688 731.50888,156.576923 730.544556,156.439394 C730.131274,156.026807 730.269035,155.47669 730.337915,154.995338 C730.751197,154.651515 731.164479,154.72028 731.646641,154.72028 L740.39444,154.72028 L759.818687,154.72028 C760.43861,154.72028 760.989653,154.72028 761.678456,154.789044 C761.885097,156.439394 762.091737,158.020979 762.091737,159.602564 C762.160618,161.184149 762.5739,162.765734 762.298378,164.484848 C761.885097,164.484848 761.471815,164.553613 761.058533,164.553613 C760.920772,164.20979 760.783012,163.865967 760.645251,163.522145 C760.36973,162.765734 760.231969,162.009324 759.956448,161.252914 C759.405405,159.808858 758.372201,158.846154 756.856834,158.364802 C756.168031,158.158508 755.410347,157.952214 754.652664,157.952214 C752.930656,157.814685 751.277529,157.745921 749.555521,157.677156 C748.315676,157.608392 747.07583,157.677156 745.767104,157.677156 C745.353822,157.677156 745.009421,157.745921 744.665019,157.814685 C744.251737,158.364802 744.320618,158.846154 744.320618,159.327506 C744.182857,166.685315 744.251737,168.679487 744.596139,169.917249 C744.87166,169.986014 745.147181,170.054779 745.422703,170.054779 C746.938069,169.986014 748.453436,169.917249 749.899923,169.77972 C750.382085,169.710956 750.864247,169.573427 751.346409,169.367133 C752.379614,168.954545 753.137297,168.198135 753.343938,167.097902 C753.550579,166.066434 753.619459,165.034965 753.75722,164.003497 C754.377143,163.728438 754.377143,163.728438 755.203707,163.865967 C755.272587,164.141026 755.410347,164.416084 755.410347,164.691142 L755.410347,178.719114 C755.410347,178.925408 755.341467,179.131702 755.341467,179.337995 C754.790425,179.681818 754.308263,179.681818 753.75722,179.337995 C753.75722,178.925408 753.68834,178.581585 753.68834,178.168998 C753.619459,177.550117 753.550579,177 753.481699,176.381119 C753.275058,174.937063 752.310734,174.111888 750.933127,173.699301 C750.450965,173.561772 749.968803,173.424242 749.486641,173.424242 C748.246795,173.355478 747.00695,173.286713 745.698224,173.217949 C745.353822,173.217949 745.009421,173.286713 744.596139,173.355478 C744.527259,173.699301 744.389498,174.043124 744.389498,174.386946 C744.458378,177.068765 744.458378,179.819347 744.596139,182.501166 C744.596139,183.188811 744.80278,183.876457 745.009421,184.564103 C745.422703,185.939394 746.387027,186.764569 747.764633,187.108392 C748.315676,187.245921 748.866718,187.38345 749.417761,187.38345 C752.104093,187.452214 754.721544,187.589744 757.407876,187.177156 C757.614517,187.177156 757.821158,187.108392 758.027799,187.108392 C760.300849,186.695804 761.816216,185.458042 762.436139,183.188811 C762.5739,182.638695 762.71166,182.088578 762.849421,181.607226 C763.124942,180.644522 763.262703,180.575758 764.295907,180.782051 Z" id="Shape"></path>
                    <path d="M828.423475,180.782051 C827.39027,180.575758 827.25251,180.575758 826.976988,181.400932 C826.839228,181.951049 826.701467,182.432401 826.563707,182.982517 C825.943784,185.251748 824.428417,186.558275 822.155367,186.902098 C821.948726,186.902098 821.742085,186.970862 821.535444,186.970862 C818.917992,187.38345 816.23166,187.245921 813.545328,187.177156 C812.994286,187.177156 812.443243,187.039627 811.892201,186.902098 C810.514595,186.558275 809.55027,185.7331 809.136988,184.357809 C808.930347,183.670163 808.723707,182.982517 808.723707,182.294872 C808.585946,179.613054 808.585946,176.862471 808.517066,174.180653 C808.517066,173.83683 808.654826,173.493007 808.723707,173.149184 C809.136988,173.08042 809.48139,173.011655 809.825792,173.011655 C811.065637,173.08042 812.305483,173.149184 813.614208,173.217949 C814.096371,173.286713 814.578533,173.355478 815.060695,173.493007 C816.438301,173.905594 817.333745,174.730769 817.609266,176.174825 C817.678147,176.793706 817.747027,177.343823 817.815907,177.962704 C817.884788,178.375291 817.884788,178.719114 817.884788,179.131702 C818.43583,179.40676 818.986873,179.475524 819.469035,179.131702 C819.469035,178.925408 819.537915,178.719114 819.537915,178.512821 L819.537915,164.484848 C819.537915,164.20979 819.400154,163.934732 819.331274,163.659674 C818.50471,163.522145 818.50471,163.522145 817.884788,163.797203 C817.747027,164.828671 817.678147,165.86014 817.471506,166.891608 C817.264865,167.991841 816.507181,168.748252 815.473977,169.160839 C814.991815,169.298368 814.509653,169.504662 814.02749,169.573427 C812.512124,169.710956 810.996757,169.77972 809.55027,169.848485 C809.274749,169.848485 808.999228,169.77972 808.723707,169.710956 C808.379305,168.473193 808.310425,166.479021 808.448185,159.121212 C808.448185,158.63986 808.379305,158.089744 808.792587,157.608392 C809.136988,157.608392 809.48139,157.539627 809.894672,157.470862 C811.134517,157.470862 812.374363,157.402098 813.683089,157.470862 C815.405097,157.539627 817.127104,157.608392 818.780232,157.745921 C819.537915,157.814685 820.295598,157.952214 820.984402,158.158508 C822.499768,158.571096 823.532973,159.5338 824.084015,161.04662 C824.359537,161.80303 824.566178,162.559441 824.772819,163.315851 C824.841699,163.659674 825.04834,163.934732 825.1861,164.347319 C825.599382,164.347319 826.012664,164.278555 826.425946,164.278555 C826.632587,162.559441 826.219305,160.977855 826.219305,159.39627 C826.150425,157.814685 826.012664,156.2331 825.806023,154.582751 C825.11722,154.582751 824.566178,154.513986 823.946255,154.513986 L804.522008,154.513986 L795.774208,154.513986 C795.360927,154.513986 794.878764,154.376457 794.465483,154.789044 C794.396602,155.270396 794.258842,155.751748 794.672124,156.2331 C795.636448,156.370629 796.600772,156.439394 797.496216,156.576923 C799.218224,156.851981 800.389189,157.814685 800.871351,159.602564 C800.940232,159.877622 801.009112,160.152681 801.077992,160.496503 C801.215753,161.665501 801.353514,162.765734 801.353514,163.934732 L801.353514,180.644522 C801.353514,181.263403 801.353514,181.882284 801.284633,182.432401 C801.146873,183.463869 801.009112,184.495338 800.66471,185.526807 C800.320309,186.833333 799.355985,187.658508 798.047259,188.002331 C797.358456,188.208625 796.669653,188.277389 795.980849,188.346154 C795.498687,188.414918 795.016525,188.414918 794.465483,188.483683 C794.327722,189.102564 794.258842,189.652681 794.534363,190.202797 C795.085405,190.202797 795.636448,190.271562 796.18749,190.271562 L826.012664,190.271562 L827.045869,190.271562 C827.32139,190.271562 827.596911,190.134033 827.872432,190.065268 C828.285714,187.314685 828.561236,181.951049 828.423475,180.782051 Z" id="Shape"></path>
                    <path d="M828.423475,180.782051 C828.630116,181.882284 828.285714,187.314685 827.872432,190.271562 C827.596911,190.340326 827.32139,190.409091 827.045869,190.477855 L826.012664,190.477855 L796.18749,190.477855 C795.636448,190.477855 795.085405,190.477855 794.534363,190.409091 C794.189961,189.79021 794.327722,189.308858 794.465483,188.689977 C795.016525,188.621212 795.498687,188.621212 795.980849,188.552448 C796.669653,188.483683 797.358456,188.414918 798.047259,188.208625 C799.355985,187.864802 800.251429,187.039627 800.66471,185.7331 C800.940232,184.701632 801.077992,183.670163 801.284633,182.638695 C801.353514,182.019814 801.353514,181.469697 801.353514,180.850816 L801.353514,164.141026 C801.353514,162.972028 801.146873,161.871795 801.077992,160.702797 C801.077992,160.427739 800.940232,160.083916 800.871351,159.808858 C800.389189,158.089744 799.218224,157.058275 797.496216,156.783217 C796.531892,156.645688 795.636448,156.576923 794.672124,156.439394 C794.258842,156.026807 794.396602,155.47669 794.465483,154.995338 C794.878764,154.651515 795.292046,154.72028 795.774208,154.72028 L804.522008,154.72028 L823.946255,154.72028 C824.566178,154.72028 825.11722,154.72028 825.806023,154.789044 C826.012664,156.439394 826.219305,158.020979 826.219305,159.602564 C826.288185,161.184149 826.701467,162.765734 826.425946,164.484848 C826.012664,164.484848 825.599382,164.553613 825.1861,164.553613 C825.04834,164.20979 824.910579,163.865967 824.772819,163.522145 C824.497297,162.765734 824.359537,162.009324 824.084015,161.252914 C823.532973,159.808858 822.499768,158.846154 820.984402,158.364802 C820.295598,158.158508 819.537915,157.952214 818.780232,157.952214 C817.058224,157.814685 815.405097,157.745921 813.683089,157.677156 C812.443243,157.608392 811.203398,157.677156 809.894672,157.677156 C809.48139,157.677156 809.136988,157.745921 808.792587,157.814685 C808.379305,158.364802 808.448185,158.846154 808.448185,159.327506 C808.310425,166.685315 808.379305,168.679487 808.723707,169.917249 C808.999228,169.986014 809.274749,170.054779 809.55027,170.054779 C811.065637,169.986014 812.581004,169.917249 814.02749,169.77972 C814.509653,169.710956 814.991815,169.573427 815.473977,169.367133 C816.507181,168.954545 817.264865,168.198135 817.471506,167.097902 C817.678147,166.066434 817.747027,165.034965 817.884788,164.003497 C818.50471,163.728438 818.50471,163.728438 819.331274,163.865967 C819.400154,164.141026 819.537915,164.416084 819.537915,164.691142 L819.537915,178.719114 C819.537915,178.925408 819.469035,179.131702 819.469035,179.337995 C818.917992,179.681818 818.43583,179.681818 817.884788,179.337995 C817.884788,178.925408 817.815907,178.581585 817.815907,178.168998 C817.747027,177.550117 817.678147,177 817.609266,176.381119 C817.402625,174.937063 816.438301,174.111888 815.060695,173.699301 C814.578533,173.561772 814.096371,173.424242 813.614208,173.424242 C812.374363,173.355478 811.134517,173.286713 809.825792,173.217949 C809.48139,173.217949 809.136988,173.286713 808.723707,173.355478 C808.654826,173.699301 808.517066,174.043124 808.517066,174.386946 C808.585946,177.068765 808.585946,179.819347 808.723707,182.501166 C808.723707,183.188811 808.930347,183.876457 809.136988,184.564103 C809.55027,185.939394 810.514595,186.764569 811.892201,187.108392 C812.443243,187.245921 812.994286,187.38345 813.545328,187.38345 C816.23166,187.452214 818.849112,187.589744 821.535444,187.177156 C821.742085,187.177156 821.948726,187.108392 822.155367,187.108392 C824.428417,186.695804 825.943784,185.458042 826.563707,183.188811 C826.701467,182.638695 826.839228,182.088578 826.976988,181.607226 C827.183629,180.644522 827.32139,180.575758 828.423475,180.782051 Z" id="Shape"></path>
                    <path d="M245.902703,259.242424 L245.902703,257.660839 C246.247104,257.592075 246.522625,257.52331 246.798147,257.52331 L265.809112,257.52331 C266.084633,257.52331 266.360154,257.592075 266.635676,257.660839 C266.911197,258.210956 266.911197,258.692308 266.635676,259.17366 C266.153514,259.517483 265.533591,259.379953 265.051429,259.517483 C264.362625,259.655012 263.673822,259.723776 262.985019,259.861305 C261.882934,260.205128 261.056371,260.892774 260.643089,262.061772 C260.436448,262.680653 260.229807,263.299534 260.160927,263.918415 C260.023166,265.156177 259.885405,266.393939 259.885405,267.631702 C259.816525,271.620047 259.885405,275.539627 259.885405,279.527972 C259.885405,280.834499 260.092046,282.141026 260.436448,283.378788 C261.400772,286.748252 263.604942,288.879953 266.980077,289.842657 C269.390888,290.530303 271.870579,290.461538 274.28139,289.705128 C278.207568,288.398601 280.273977,285.51049 280.825019,281.522145 C280.8939,280.972028 280.8939,280.421911 280.8939,279.871795 L280.8939,267.081585 C280.8939,265.706294 280.8939,264.399767 280.549498,263.024476 C280.411737,262.611888 280.342857,262.268065 280.205097,261.855478 C279.791815,260.892774 279.034131,260.205128 278.069807,259.861305 C277.381004,259.655012 276.692201,259.586247 276.003398,259.448718 C275.452355,259.379953 274.901313,259.311189 274.419151,259.311189 C274.074749,258.692308 274.074749,258.210956 274.35027,257.729604 C275.590116,257.52331 290.261622,257.52331 291.708108,257.729604 C291.983629,258.142191 291.914749,258.623543 291.776988,259.17366 C291.294826,259.517483 290.743784,259.448718 290.192741,259.517483 C289.435058,259.655012 288.677375,259.723776 287.988571,259.861305 C286.817606,260.205128 285.922162,260.961538 285.577761,262.130536 C285.302239,263.09324 285.095598,264.055944 285.026718,265.087413 C284.888958,266.668998 284.888958,268.319347 284.888958,269.900932 L284.888958,278.909091 C284.888958,280.628205 284.751197,282.347319 284.337915,283.997669 C282.822548,289.43007 279.309653,292.799534 273.868108,294.037296 C270.217452,294.862471 266.566795,294.724942 263.0539,293.487179 C257.267954,291.493007 253.548417,286.679487 253.272896,280.490676 C253.135135,276.914918 253.204015,273.270396 253.204015,269.625874 C253.204015,267.90676 253.135135,266.187646 252.997375,264.537296 C252.928494,263.780886 252.790734,262.955711 252.515212,262.199301 C252.101931,260.892774 251.206486,260.067599 249.897761,259.723776 C249.277838,259.586247 248.589035,259.517483 247.969112,259.379953 C247.142548,259.311189 246.591506,259.311189 245.902703,259.242424 Z" id="Shape"></path>
                    <path d="M858.52417,156.439394 C858.317529,155.889277 858.317529,155.407925 858.52417,154.857809 C858.937452,154.857809 859.281853,154.789044 859.695135,154.789044 L877.948417,154.789044 C880.290347,154.789044 882.563398,155.201632 884.698687,156.026807 C886.076293,156.508159 887.316139,157.264569 888.418224,158.227273 C892.413282,161.665501 892.482162,167.991841 888.900386,171.498834 C887.385019,172.94289 885.594131,173.905594 883.596602,174.524476 C881.736834,175.074592 879.877066,175.418415 877.948417,175.418415 L874.022239,175.418415 C873.608958,175.418415 873.126795,175.487179 872.644633,175.487179 C872.575753,175.899767 872.437992,176.24359 872.437992,176.587413 C872.369112,178.925408 872.369112,181.332168 872.644633,183.670163 C872.713514,184.357809 872.920154,185.045455 873.126795,185.7331 C873.540077,187.039627 874.435521,187.864802 875.744247,188.208625 C876.501931,188.414918 877.328494,188.483683 878.086178,188.552448 C878.499459,188.621212 878.843861,188.621212 879.257143,188.689977 C879.532664,189.308858 879.532664,189.79021 879.326023,190.271562 C877.948417,190.54662 866.720927,190.615385 859.419614,190.409091 C859.075212,190.409091 858.730811,190.340326 858.317529,190.271562 L858.317529,188.827506 C858.799691,188.414918 859.350734,188.621212 859.832896,188.552448 C860.521699,188.483683 861.210502,188.414918 861.899305,188.208625 C863.276911,187.864802 864.172355,186.970862 864.585637,185.595571 C864.998919,184.357809 865.13668,183.051282 865.20556,181.744755 C865.20556,180.300699 865.27444,178.856643 865.27444,177.412587 L865.27444,164.003497 C865.27444,162.903263 865.13668,161.80303 864.998919,160.702797 C864.998919,160.427739 864.861158,160.083916 864.792278,159.808858 C864.310116,158.020979 863.139151,156.98951 861.279382,156.714452 C860.590579,156.576923 859.901776,156.576923 859.212973,156.439394 C859.006332,156.576923 858.730811,156.508159 858.52417,156.439394 Z M872.644633,172.117716 C872.851274,172.18648 872.920154,172.324009 872.989035,172.324009 C874.779923,172.324009 876.639691,172.461538 878.430579,172.255245 C880.979151,171.980186 882.770039,170.467366 883.665483,168.060606 C884.354286,166.135198 884.354286,164.141026 883.665483,162.146853 C882.97668,160.083916 881.461313,158.708625 879.326023,158.089744 C878.63722,157.88345 877.948417,157.814685 877.259614,157.814685 C876.088649,157.745921 874.917683,157.814685 873.815598,157.814685 C872.713514,157.814685 872.575753,157.952214 872.575753,158.983683 L872.575753,159.121212 L872.575753,171.017483 C872.506873,171.361305 872.575753,171.773893 872.644633,172.117716 Z" id="Shape"></path>
                    <path d="M113.101467,153.413753 L114.616834,153.413753 C115.167876,153.82634 115.305637,154.445221 115.581158,154.926573 C118.26749,160.565268 120.884942,166.272727 123.571274,171.980186 C125.155521,175.418415 126.739768,178.787879 128.392896,182.226107 C128.875058,183.32634 129.494981,184.357809 130.114903,185.389277 C131.285869,187.38345 133.007876,188.483683 135.418687,188.552448 C135.763089,188.552448 136.10749,188.621212 136.383012,188.689977 C136.658533,189.240093 136.589653,189.721445 136.451892,190.271562 C136.176371,190.340326 135.900849,190.409091 135.625328,190.409091 L116.958764,190.409091 C116.683243,190.409091 116.476602,190.340326 116.201081,190.340326 C115.92556,189.79021 115.92556,189.240093 116.201081,188.621212 C116.683243,188.552448 117.165405,188.552448 117.647568,188.483683 C118.405251,188.346154 119.231815,188.277389 119.989498,188.071096 C121.367104,187.658508 121.849266,186.695804 121.711506,185.320513 C121.642625,184.907925 121.573745,184.495338 121.435985,184.151515 C120.816062,182.363636 119.920618,180.644522 119.094054,178.925408 C118.818533,178.856643 118.543012,178.787879 118.336371,178.787879 L105.524633,178.787879 C105.386873,178.787879 105.249112,178.856643 104.973591,178.856643 C104.90471,178.925408 104.83583,178.994172 104.76695,179.131702 C104.009266,180.850816 103.182703,182.56993 102.425019,184.357809 C102.218378,184.770396 102.149498,185.251748 102.080618,185.664336 C101.942857,186.764569 102.287259,187.520979 103.320463,187.933566 C104.078147,188.208625 104.83583,188.346154 105.662394,188.483683 C106.282317,188.552448 106.97112,188.552448 107.591042,188.621212 C108.073205,189.171329 107.866564,189.721445 107.797683,190.271562 C107.522162,190.340326 107.246641,190.409091 107.04,190.409091 L91.8174517,190.409091 C91.6108108,190.409091 91.4041699,190.340326 91.197529,190.340326 C90.7842471,189.79021 90.990888,189.308858 91.0597683,188.689977 C91.4730502,188.621212 91.8174517,188.552448 92.1618533,188.483683 C92.6440154,188.414918 93.1950579,188.414918 93.6772201,188.346154 C95.3303475,188.071096 96.7079537,187.245921 97.6033977,185.801865 C98.2922008,184.770396 98.9121236,183.670163 99.3942857,182.501166 C102.287259,176.312354 105.249112,170.192308 108.142085,164.003497 C109.588571,160.977855 110.966178,157.952214 112.412664,154.857809 C112.481544,154.513986 112.825946,153.963869 113.101467,153.413753 Z M111.930502,164.347319 C111.172819,165.310023 108.555367,170.536131 106.764479,174.799534 C106.626718,175.074592 106.626718,175.34965 106.557838,175.624709 C106.764479,175.693473 106.902239,175.831002 107.04,175.831002 L116.683243,175.831002 C116.821004,175.831002 117.027645,175.693473 117.165405,175.624709 C116.821004,174.386946 112.825946,165.653846 111.930502,164.347319 Z" id="Shape"></path>
                    <path d="M462.324633,188.689977 C462.600154,189.377622 462.600154,189.79021 462.324633,190.409091 C461.980232,190.409091 461.56695,190.477855 461.222548,190.477855 C452.199228,190.615385 443.451429,190.54662 442.280463,190.340326 C442.004942,189.858974 442.073822,189.377622 442.211583,188.89627 C442.555985,188.552448 442.969266,188.621212 443.382548,188.552448 C444.209112,188.414918 444.966795,188.414918 445.724479,188.208625 C447.584247,187.727273 448.13529,186.62704 447.722008,184.839161 C447.653127,184.632867 447.653127,184.426573 447.584247,184.289044 C446.895444,182.432401 446.06888,180.713287 445.173436,178.925408 C443.589189,178.65035 442.004942,178.856643 440.489575,178.787879 L435.805714,178.787879 L431.121853,178.787879 C430.915212,179.131702 430.708571,179.475524 430.570811,179.750583 C429.950888,181.05711 429.330965,182.363636 428.779923,183.738928 C428.504402,184.426573 428.297761,185.182984 428.16,185.870629 C428.022239,186.902098 428.504402,187.589744 429.468726,188.002331 C430.226409,188.346154 431.121853,188.483683 431.948417,188.552448 C432.56834,188.552448 433.119382,188.621212 433.739305,188.689977 C434.014826,189.308858 434.014826,189.858974 433.808185,190.340326 C432.499459,190.54662 422.856216,190.684149 418.103475,190.477855 C417.827954,190.477855 417.552432,190.409091 417.276911,190.340326 C417.00139,189.79021 417.00139,189.308858 417.276911,188.758741 C417.483552,188.689977 417.690193,188.621212 417.965714,188.621212 C418.378996,188.552448 418.792278,188.552448 419.13668,188.552448 C421.065328,188.346154 422.580695,187.520979 423.6139,185.939394 C424.302703,184.839161 424.922625,183.670163 425.473668,182.501166 C428.16,176.862471 430.777452,171.223776 433.394903,165.653846 C435.116911,162.078089 436.770039,158.502331 438.492046,154.926573 C438.698687,154.445221 438.905328,154.032634 439.180849,153.551282 L440.833977,153.551282 C441.247259,153.963869 441.4539,154.582751 441.729421,155.064103 C445.862239,163.865967 449.995058,172.667832 454.127876,181.469697 C454.610039,182.501166 455.161081,183.532634 455.643243,184.564103 C455.987645,185.182984 456.400927,185.801865 456.814208,186.351981 C457.847413,187.727273 459.225019,188.414918 460.878147,188.621212 C461.291429,188.621212 461.773591,188.621212 462.324633,188.689977 Z M443.244788,175.555944 C443.107027,175.143357 442.969266,174.799534 442.831506,174.455711 C442.418224,173.561772 442.004942,172.736597 441.660541,171.842657 C440.627336,169.642191 439.594131,167.37296 438.560927,165.172494 C438.423166,164.828671 438.354286,164.416084 437.803243,164.347319 C437.734363,164.484848 437.596602,164.553613 437.527722,164.691142 C435.943475,168.129371 434.290347,171.567599 432.7061,175.005828 C432.63722,175.143357 432.63722,175.34965 432.63722,175.624709 C432.912741,175.693473 433.050502,175.762238 433.257143,175.762238 L442.693745,175.762238 C442.831506,175.831002 442.969266,175.693473 443.244788,175.555944 Z" id="Shape"></path>
                    <path d="M489.807876,256.216783 L491.598764,256.216783 C491.943166,256.835664 492.218687,257.385781 492.494208,258.004662 C496.558147,266.600233 500.553205,275.264569 504.617143,283.86014 C505.099305,284.891608 505.581467,285.923077 506.13251,286.954545 C506.476911,287.642191 506.890193,288.261072 507.303475,288.879953 C508.267799,290.255245 509.645405,291.08042 511.367413,291.217949 C511.987336,291.286713 512.538378,291.355478 513.089421,291.493007 C513.364942,292.043124 513.364942,292.524476 513.158301,292.937063 L513.020541,293.074592 L512.88278,293.074592 C506.476911,293.074592 500.139923,293.074592 493.734054,293.143357 C493.527413,293.143357 493.320772,293.143357 493.114131,293.074592 C493.045251,293.074592 492.90749,293.005828 492.76973,292.937063 C492.76973,292.524476 492.700849,292.111888 492.700849,291.699301 C493.251892,291.217949 493.871815,291.355478 494.491737,291.217949 C495.180541,291.08042 495.869344,291.011655 496.558147,290.805361 C498.142394,290.324009 498.693436,289.361305 498.417915,287.710956 C498.280154,287.160839 498.142394,286.679487 497.935753,286.129371 C497.38471,284.822844 496.764788,283.585082 496.213745,282.278555 C495.938224,281.590909 495.524942,281.384615 494.836139,281.384615 L492.700849,281.384615 L483.333127,281.384615 C482.782085,281.384615 482.231042,281.45338 481.74888,281.45338 C481.542239,281.797203 481.335598,282.003497 481.266718,282.278555 C480.646795,283.585082 480.095753,284.822844 479.54471,286.129371 C479.269189,286.748252 479.062548,287.367133 478.924788,287.986014 C478.580386,289.361305 479.131429,290.324009 480.509035,290.805361 C481.060077,290.94289 481.61112,291.08042 482.093282,291.149184 C482.850965,291.286713 483.608649,291.286713 484.297452,291.355478 C484.710734,291.905594 484.641853,292.386946 484.435212,292.937063 C484.159691,293.005828 483.88417,293.074592 483.608649,293.074592 L468.661622,293.074592 C468.3861,293.074592 468.179459,293.005828 467.903938,293.005828 C467.628417,292.524476 467.697297,292.043124 467.835058,291.493007 C468.3861,291.217949 469.006023,291.217949 469.557066,291.149184 C471.898996,291.011655 473.552124,289.911422 474.654208,287.917249 C475.274131,286.817016 475.825174,285.716783 476.376216,284.547786 C480.646795,275.539627 484.917375,266.531469 489.119073,257.454545 C489.256834,257.179487 489.532355,256.7669 489.807876,256.216783 Z M483.264247,278.496503 C484.641853,278.565268 485.743938,278.565268 486.914903,278.565268 L490.49668,278.565268 C491.598764,278.565268 492.76973,278.702797 494.009575,278.427739 C493.940695,278.083916 493.871815,277.808858 493.734054,277.5338 C493.389653,276.777389 493.045251,276.089744 492.700849,275.333333 C491.529884,272.857809 490.358919,270.382284 489.187954,267.837995 C489.050193,267.562937 488.981313,267.15035 488.499151,267.219114 C487.948108,268.113054 484.366332,275.539627 483.470888,277.602564 C483.402008,277.808858 483.402008,278.015152 483.264247,278.496503 Z" id="Shape"></path>
                    <path d="M576.665946,267.15035 C576.459305,267.219114 576.321544,267.287879 576.183784,267.356643 L575.494981,267.356643 C575.35722,267.219114 575.28834,267.15035 575.28834,267.081585 C575.150579,266.600233 575.012819,266.118881 574.875058,265.637529 C574.737297,265.156177 574.599537,264.674825 574.392896,264.193473 C573.841853,262.611888 572.739768,261.58042 571.086641,261.167832 C570.328958,260.961538 569.640154,260.755245 568.882471,260.755245 C566.265019,260.617716 563.647568,260.617716 561.030116,260.548951 C560.685714,260.548951 560.341313,260.68648 560.065792,260.68648 C559.72139,261.236597 559.79027,261.855478 559.79027,262.33683 L559.79027,273.47669 L559.79027,282.072261 C559.79027,283.585082 559.928031,285.097902 560.065792,286.541958 C560.065792,286.954545 560.203552,287.435897 560.341313,287.848485 C560.754595,289.773893 562.06332,290.805361 563.991969,291.149184 C564.611892,291.217949 565.162934,291.286713 565.782857,291.355478 C566.058378,291.424242 566.3339,291.493007 566.609421,291.493007 C566.884942,292.043124 566.884942,292.524476 566.609421,293.005828 C566.47166,293.074592 566.3339,293.143357 566.196139,293.143357 L546.28973,293.143357 C546.151969,293.143357 546.014208,293.074592 545.807568,293.005828 C545.807568,292.59324 545.738687,292.111888 545.738687,291.699301 C546.28973,291.217949 546.978533,291.355478 547.529575,291.286713 C548.218378,291.149184 548.907181,291.08042 549.595985,290.874126 C550.76695,290.530303 551.662394,289.773893 552.006795,288.604895 C552.351197,287.642191 552.557838,286.541958 552.626718,285.51049 C552.764479,284.135198 552.695598,282.691142 552.695598,281.315851 L552.695598,262.33683 C552.695598,261.786713 552.764479,261.236597 552.557838,260.755245 C552.144556,260.411422 551.662394,260.480186 551.180232,260.480186 C548.700541,260.548951 546.28973,260.548951 543.810039,260.68648 C542.914595,260.755245 542.019151,260.961538 541.192587,261.236597 C539.67722,261.649184 538.712896,262.680653 538.161853,264.124709 C537.886332,264.881119 537.748571,265.637529 537.47305,266.462704 C537.40417,266.668998 537.33529,266.944056 537.266409,267.15035 C536.784247,267.494172 536.302085,267.425408 535.751042,267.15035 C535.751042,266.944056 535.682162,266.668998 535.682162,266.393939 C535.888803,263.574592 536.164324,260.824009 536.439846,258.004662 C536.439846,257.867133 536.577606,257.729604 536.646486,257.52331 C536.990888,257.52331 537.33529,257.454545 537.679691,257.454545 C547.529575,257.248252 574.255135,257.385781 575.839382,257.592075 C576.252664,259.104895 576.183784,260.755245 576.321544,262.33683 C576.528185,263.918415 576.803707,265.568765 576.665946,267.15035 Z" id="Shape"></path>
                    <path d="M187.28556,188.758741 C187.492201,189.377622 187.492201,189.858974 187.28556,190.340326 C187.147799,190.409091 187.010039,190.477855 186.872278,190.477855 L167.103629,190.477855 C166.896988,190.477855 166.690347,190.409091 166.483707,190.340326 C166.414826,189.996503 166.345946,189.652681 166.345946,189.308858 C166.345946,188.89627 166.552587,188.689977 167.034749,188.621212 C167.448031,188.552448 167.861313,188.621212 168.205714,188.552448 C168.825637,188.483683 169.51444,188.346154 170.134363,188.208625 C171.305328,187.864802 172.131892,187.108392 172.545174,185.939394 C172.751815,185.251748 172.958456,184.564103 173.096216,183.876457 C173.233977,182.501166 173.371737,181.05711 173.371737,179.681818 L173.371737,159.671329 C173.371737,159.121212 173.302857,158.571096 173.302857,158.020979 C172.958456,157.952214 172.682934,157.814685 172.407413,157.814685 C169.51444,157.814685 166.690347,157.677156 163.866255,158.089744 C163.177452,158.158508 162.488649,158.364802 161.799846,158.571096 C160.353359,158.983683 159.389035,159.946387 158.906873,161.390443 C158.631351,162.078089 158.493591,162.834499 158.28695,163.522145 C158.218069,163.865967 158.080309,164.20979 157.942548,164.553613 C157.460386,164.828671 156.978224,164.759907 156.427181,164.622378 C156.358301,163.590909 156.564942,162.559441 156.633822,161.527972 C156.633822,160.427739 156.840463,159.327506 156.909344,158.227273 C156.978224,157.195804 157.047104,156.164336 157.322625,155.064103 C157.598147,154.995338 157.804788,154.995338 158.080309,154.926573 C161.593205,154.789044 195.275676,154.857809 196.584402,155.064103 C196.653282,155.339161 196.791042,155.682984 196.859923,156.026807 C197.066564,158.708625 197.273205,161.390443 197.479846,164.141026 C197.479846,164.278555 197.479846,164.416084 197.410965,164.622378 C196.997683,164.9662 196.584402,164.828671 196.102239,164.759907 C195.757838,164.347319 195.757838,163.728438 195.551197,163.247086 C195.344556,162.559441 195.137915,161.80303 194.862394,161.115385 C194.380232,160.015152 193.553668,159.189977 192.382703,158.777389 C191.6939,158.571096 191.073977,158.364802 190.385174,158.227273 C187.42332,157.814685 184.392587,157.88345 181.361853,157.952214 C181.155212,157.952214 181.017452,158.020979 180.741931,158.158508 C180.67305,158.571096 180.60417,158.983683 180.60417,159.327506 L180.60417,181.469697 C180.60417,182.638695 180.741931,183.807692 180.948571,184.907925 C181.430734,187.727273 182.9461,188.414918 185.08139,188.758741 C185.632432,188.827506 186.183475,188.827506 186.734517,188.827506 C186.803398,188.621212 187.010039,188.689977 187.28556,188.758741 Z" id="Shape"></path>
                    <path d="M705.334363,180.850816 C705.334363,181.05711 705.403243,181.332168 705.403243,181.538462 C705.196602,184.426573 704.989961,187.314685 704.71444,190.271562 C704.370039,190.340326 704.094517,190.477855 703.818996,190.477855 C703.405714,190.54662 702.992432,190.477855 702.648031,190.477855 L670.825328,190.477855 L669.03444,190.477855 C668.621158,189.927739 668.827799,189.377622 668.89668,188.89627 C669.378842,188.552448 669.929884,188.689977 670.412046,188.621212 C671.100849,188.552448 671.789653,188.483683 672.478456,188.277389 C673.787181,187.933566 674.751506,187.108392 675.095907,185.870629 C675.371429,184.97669 675.578069,184.013986 675.64695,183.051282 C675.78471,182.157343 675.71583,181.263403 675.71583,180.369464 L675.71583,164.897436 C675.71583,163.45338 675.71583,162.009324 675.371429,160.565268 C675.302548,160.358974 675.302548,160.152681 675.233668,159.946387 C674.751506,158.227273 673.649421,157.195804 671.858533,156.920746 C671.16973,156.783217 670.480927,156.714452 669.792124,156.645688 C669.516602,156.576923 669.172201,156.576923 668.89668,156.508159 C668.621158,156.026807 668.690039,155.545455 668.827799,154.995338 C669.10332,154.926573 669.378842,154.857809 669.654363,154.857809 L688.803089,154.857809 C689.07861,154.857809 689.423012,154.926573 689.698533,154.926573 C690.042934,155.407925 689.905174,155.889277 689.836293,156.439394 C689.491892,156.508159 689.216371,156.576923 688.940849,156.576923 C688.252046,156.645688 687.563243,156.714452 686.87444,156.851981 C685.083552,157.12704 683.843707,158.158508 683.430425,159.946387 C683.223784,160.702797 683.154903,161.390443 683.086023,162.146853 C683.017143,162.972028 683.017143,163.728438 683.017143,164.553613 L683.017143,179.475524 C683.017143,180.850816 683.017143,182.294872 683.361544,183.670163 C683.430425,183.945221 683.499305,184.22028 683.637066,184.564103 C684.050347,185.939394 685.014672,186.764569 686.392278,187.108392 C687.081081,187.245921 687.769884,187.38345 688.458687,187.38345 C691.007259,187.38345 693.55583,187.452214 696.173282,187.38345 C697.413127,187.314685 698.652973,187.108392 699.892819,186.833333 C701.545946,186.420746 702.579151,185.389277 703.130193,183.807692 C703.336834,183.120047 703.543475,182.363636 703.750116,181.675991 C703.956757,180.575758 704.094517,180.506993 705.334363,180.850816 Z" id="Shape"></path>
                    <path d="M523.559228,180.713287 L524.867954,180.713287 C524.936834,180.988345 525.005714,181.125874 525.005714,181.332168 C524.936834,182.56993 524.867954,183.807692 524.730193,185.114219 C524.661313,186.48951 524.523552,187.796037 524.454672,189.171329 C524.454672,189.652681 524.385792,190.065268 524.11027,190.409091 C522.939305,190.54662 492.631969,190.684149 489.256834,190.54662 C488.981313,190.54662 488.774672,190.477855 488.499151,190.409091 L488.499151,188.965035 C488.981313,188.621212 489.532355,188.758741 490.014517,188.689977 C490.70332,188.552448 491.392124,188.552448 492.080927,188.346154 C493.458533,188.002331 494.422857,187.108392 494.767259,185.7331 C495.04278,184.632867 495.180541,183.463869 495.318301,182.363636 C495.387181,181.607226 495.387181,180.850816 495.387181,180.094406 L495.387181,165.172494 C495.387181,163.797203 495.387181,162.353147 495.11166,160.977855 C495.04278,160.702797 495.04278,160.496503 494.9739,160.221445 C494.422857,158.158508 493.320772,157.195804 491.254363,156.851981 C490.427799,156.714452 489.532355,156.645688 488.705792,156.576923 C488.29251,156.095571 488.43027,155.614219 488.499151,155.132867 C488.912432,154.789044 489.325714,154.857809 489.807876,154.857809 L498.693436,154.857809 L507.854517,154.857809 L509.301004,154.857809 C509.714286,155.47669 509.645405,155.958042 509.369884,156.508159 C508.54332,156.645688 507.647876,156.714452 506.821313,156.851981 C506.27027,156.920746 505.719228,157.058275 505.237066,157.264569 C504.341622,157.608392 503.652819,158.227273 503.377297,159.121212 C503.101776,159.877622 502.895135,160.634033 502.757375,161.459207 C502.619614,162.765734 502.550734,164.072261 502.550734,165.378788 L502.550734,178.925408 C502.550734,180.231935 502.688494,181.538462 502.757375,182.844988 C502.826255,183.463869 502.964015,184.151515 503.170656,184.770396 C503.583938,186.076923 504.479382,186.902098 505.856988,187.177156 C506.614672,187.314685 507.372355,187.452214 508.061158,187.452214 C510.540849,187.452214 512.95166,187.520979 515.431351,187.452214 C516.602317,187.38345 517.842162,187.177156 519.013127,186.970862 C521.010656,186.558275 522.181622,185.320513 522.732664,183.463869 C523.008185,182.432401 523.283707,181.607226 523.559228,180.713287 Z" id="Shape"></path>
                    <path d="M626.741931,291.561772 C626.741931,292.111888 626.67305,292.59324 626.67305,293.074592 C626.259768,293.143357 625.915367,293.143357 625.570965,293.143357 C617.78749,293.280886 607.111042,293.212121 605.664556,293.005828 C605.457915,292.524476 605.457915,292.111888 605.664556,291.561772 C606.353359,291.286713 607.042162,291.286713 607.730965,291.217949 C610.555058,290.874126 611.726023,289.911422 612.277066,287.092075 C612.483707,285.785548 612.552587,284.410256 612.552587,283.034965 C612.552587,277.258741 612.552587,271.482517 612.483707,265.706294 C612.483707,264.812354 612.345946,263.918415 612.208185,263.024476 C611.726023,260.755245 610.555058,259.655012 608.213127,259.379953 C607.593205,259.311189 607.042162,259.311189 606.422239,259.242424 C606.215598,259.242424 605.940077,259.104895 605.664556,259.036131 L605.664556,257.660839 C606.146718,257.248252 606.766641,257.454545 607.248803,257.454545 L621.989189,257.454545 L625.570965,257.454545 C625.915367,257.454545 626.259768,257.52331 626.67305,257.52331 C626.67305,258.004662 626.741931,258.486014 626.741931,258.898601 C626.259768,259.379953 625.639846,259.242424 625.157683,259.311189 C624.4,259.448718 623.642317,259.517483 622.953514,259.655012 C621.713668,259.998834 620.818224,260.824009 620.473822,262.061772 C620.198301,263.024476 620.060541,263.987179 619.92278,265.018648 C619.8539,265.843823 619.8539,266.600233 619.8539,267.425408 L619.8539,283.034965 C619.8539,284.410256 619.8539,285.854312 620.198301,287.229604 C620.267181,287.435897 620.267181,287.642191 620.336062,287.848485 C620.818224,289.705128 621.989189,290.736597 623.917838,291.08042 C624.537761,291.217949 625.226564,291.217949 625.846486,291.286713 C625.984247,291.424242 626.259768,291.493007 626.741931,291.561772 Z" id="Shape"></path>
                    <path d="M223.516602,190.340326 C223.447722,190.134033 223.378842,189.996503 223.378842,189.79021 C223.378842,189.515152 223.447722,189.171329 223.447722,188.827506 C223.792124,188.758741 224.136525,188.689977 224.480927,188.621212 C225.100849,188.552448 225.789653,188.552448 226.409575,188.414918 C228.269344,188.071096 229.509189,186.970862 229.853591,185.114219 C230.060232,184.082751 230.129112,183.051282 230.335753,182.019814 L230.335753,181.744755 L230.335753,163.522145 C230.335753,162.353147 230.060232,161.115385 229.853591,159.946387 C229.440309,158.089744 228.200463,157.12704 226.409575,156.851981 C225.445251,156.714452 224.549807,156.576923 223.585483,156.508159 C223.309961,155.958042 223.309961,155.47669 223.585483,154.995338 C223.723243,154.926573 223.861004,154.857809 223.998764,154.857809 L243.767413,154.857809 C243.974054,154.857809 244.180695,154.926573 244.318456,154.926573 C244.593977,155.407925 244.593977,155.889277 244.318456,156.439394 C243.560772,156.508159 242.734208,156.645688 241.976525,156.783217 C241.494363,156.851981 241.012201,156.98951 240.530039,157.12704 C239.496834,157.470862 238.67027,158.158508 238.325869,159.258741 C238.119228,159.877622 237.912587,160.496503 237.843707,161.115385 C237.705946,162.490676 237.568185,163.934732 237.568185,165.310023 L237.568185,179.888112 C237.568185,181.263403 237.705946,182.707459 237.843707,184.082751 C237.843707,184.357809 237.912587,184.564103 237.981467,184.839161 C238.53251,187.314685 239.703475,188.208625 242.114286,188.552448 C242.871969,188.689977 243.629653,188.689977 244.318456,188.758741 C244.662857,189.377622 244.662857,189.858974 244.318456,190.409091 C244.111815,190.477855 243.905174,190.54662 243.767413,190.54662 L223.998764,190.54662 C223.861004,190.477855 223.723243,190.340326 223.516602,190.340326 Z" id="Shape"></path>
                </g>
            </g>
        </g>
    </g>
</svg>