<?xml version="1.0" encoding="UTF-8"?>
<svg width="60px" height="60px" viewBox="0 0 60 60" version="1.1" xmlns="http://www.w3.org/2000/svg" xmlns:xlink="http://www.w3.org/1999/xlink">
    <!-- Generator: Sketch 42 (36781) - http://www.bohemiancoding.com/sketch -->
    <title>pillow</title>
    <desc>Created with Sketch.</desc>
    <defs></defs>
    <g id="Page-1" stroke="none" stroke-width="1" fill="none" fill-rule="evenodd">
        <path d="M54.4153408,50.2937702 C53.6330633,50.2937702 52.7949088,50.1261393 51.9008774,49.6791236 C50.7833381,49.1203539 46.1455501,48.3939534 43.4634558,48.0586916 L17.5924212,48.0586916 C14.9103269,48.3939534 10.2725389,49.1203539 9.15499957,49.6791236 C6.91992099,50.7966628 4.74071937,50.2378932 3.62318008,49.1762309 C2.61739472,48.2263225 2.17037901,46.3823827 4.01431883,44.3708119 C5.13185812,43.1415187 6.41702831,40.9064401 6.52878224,39.9565317 L6.52878224,21.6847644 L8.81973778,21.6847644 L8.81973778,40.1241626 C8.59622992,41.9681025 6.86404402,44.7060737 5.69062777,45.9912439 C5.24361205,46.4941366 4.79659634,47.1087832 5.18773509,47.4999219 C5.6347508,47.8910607 6.75229009,48.2821994 8.03746028,47.6116759 C9.8814001,46.6617675 16.5307589,45.823613 17.3130364,45.767736 L17.4806673,45.767736 L43.6869636,45.767736 C44.4133642,45.87949 51.0627229,46.7176444 52.9625397,47.6116759 C54.3035869,48.2821994 55.4211262,47.8910607 55.8122649,47.4999219 C56.2034037,47.1087832 55.7563879,46.4382596 55.3093722,45.9912439 C54.135956,44.7619507 52.4037701,41.9681025 52.1802622,40.2917935 L52.1802622,21.7406413 C52.4037701,19.8967015 54.135956,17.1587302 55.3093722,15.87356 C55.7563879,15.3706674 56.2034037,14.7560208 55.8122649,14.364882 C55.4211262,13.9737433 54.2477099,13.5826045 52.9625397,14.2531281 C51.1185999,15.2030365 44.4692411,16.0411909 43.6869636,16.0970679 L43.5193327,16.0970679 L17.3130364,16.0970679 C16.5866358,15.985314 9.93727707,15.2030365 8.03746028,14.2531281 C6.69641313,13.5826045 6.19352045,13.4708506 3.84668794,14.2531281 L3.1202874,12.0739265 C5.69062777,11.235772 6.91992099,11.1240181 9.04324564,12.2415574 C10.1607849,12.800327 14.798573,13.5267275 17.4806673,13.8619893 L43.4075788,13.8619893 C46.0896731,13.5267275 50.7274611,12.800327 51.8450004,12.2415574 C54.080079,11.1240181 56.2592806,11.6827877 57.3768199,12.74445 C58.3826053,13.6943584 58.829621,15.5382983 56.9856812,17.549869 C55.8681419,18.7791622 54.5829717,21.0142408 54.4712178,21.9641492 L54.4712178,40.2359166 C54.5829717,41.0181941 55.8681419,43.3091496 56.9856812,44.5384428 C58.829621,46.5500135 58.3267283,48.3939534 57.3768199,49.2879848 C56.7621733,49.8467545 55.700511,50.2937702 54.4153408,50.2937702 Z" id="Shape" fill="#FFFFFF" fill-rule="nonzero"></path>
    </g>
</svg>