<?xml version="1.0" encoding="UTF-8"?>
<svg width="60px" height="60px" viewBox="0 0 60 60" version="1.1" xmlns="http://www.w3.org/2000/svg" xmlns:xlink="http://www.w3.org/1999/xlink">
    <!-- Generator: Sketch 43.2 (39069) - http://www.bohemiancoding.com/sketch -->
    <title>quality</title>
    <desc>Created with Sketch.</desc>
    <defs></defs>
    <g id="Page-1" stroke="none" stroke-width="1" fill="none" fill-rule="evenodd">
        <g id="Group-3" transform="translate(-1000.000000, -227.000000)" fill="#FFFFFF">
            <path d="M1011.3,275.772 C1011.3,275.892 1011.408,276 1011.528,276 L1016.652,276 C1016.784,276 1016.88,275.892 1016.88,275.772 L1016.88,274.776 C1016.88,274.656 1016.784,274.548 1016.652,274.548 L1013.592,274.548 L1013.592,274.524 L1017.12,267.984 L1017.12,267.828 C1017.12,267.708 1017.012,267.6 1016.892,267.6 L1011.876,267.6 C1011.756,267.6 1011.648,267.708 1011.648,267.828 L1011.648,268.824 C1011.648,268.944 1011.756,269.052 1011.876,269.052 L1014.876,269.052 L1014.876,269.1 L1011.3,275.556 L1011.3,275.772 Z" id="Z"></path>
            <path d="M1023.45,266.658 C1023.45,266.838 1023.612,267 1023.792,267 L1031.478,267 C1031.676,267 1031.82,266.838 1031.82,266.658 L1031.82,265.164 C1031.82,264.984 1031.676,264.822 1031.478,264.822 L1026.888,264.822 L1026.888,264.786 L1032.18,254.976 L1032.18,254.742 C1032.18,254.562 1032.018,254.4 1031.838,254.4 L1024.314,254.4 C1024.134,254.4 1023.972,254.562 1023.972,254.742 L1023.972,256.236 C1023.972,256.416 1024.134,256.578 1024.314,256.578 L1028.814,256.578 L1028.814,256.65 L1023.45,266.334 L1023.45,266.658 Z" id="Z"></path>
            <path d="M1038.55,253.582 C1038.55,253.802 1038.748,254 1038.968,254 L1048.362,254 C1048.604,254 1048.78,253.802 1048.78,253.582 L1048.78,251.756 C1048.78,251.536 1048.604,251.338 1048.362,251.338 L1042.752,251.338 L1042.752,251.294 L1049.22,239.304 L1049.22,239.018 C1049.22,238.798 1049.022,238.6 1048.802,238.6 L1039.606,238.6 C1039.386,238.6 1039.188,238.798 1039.188,239.018 L1039.188,240.844 C1039.188,241.064 1039.386,241.262 1039.606,241.262 L1045.106,241.262 L1045.106,241.35 L1038.55,253.186 L1038.55,253.582 Z" id="Z-Copy"></path>
        </g>
    </g>
</svg>