<?xml version="1.0" encoding="UTF-8"?>
<svg width="64px" height="86px" viewBox="0 0 64 86" version="1.1" xmlns="http://www.w3.org/2000/svg" xmlns:xlink="http://www.w3.org/1999/xlink">
    <!-- Generator: Sketch 42 (36781) - http://www.bohemiancoding.com/sketch -->
    <title>Shape</title>
    <desc>Created with Sketch.</desc>
    <defs></defs>
    <g id="Page-1" stroke="none" stroke-width="1" fill="none" fill-rule="evenodd">
        <path d="M60.666,27.5 L40.125,27.5 C38.744,27.5 37.625,28.619 37.625,30 C37.625,31.381 38.744,32.5 40.125,32.5 L58.166,32.5 L58.166,80.834 L5.834,80.834 L5.834,32.5 L23.875,32.5 C25.256,32.5 26.375,31.381 26.375,30 C26.375,28.619 25.256,27.5 23.875,27.5 L3.334,27.5 C1.953,27.5 0.834,28.619 0.834,30 L0.834,83.334 C0.834,84.715 1.953,85.834 3.334,85.834 L60.666,85.834 C62.047,85.834 63.166,84.715 63.166,83.334 L63.166,30 C63.166,28.619 62.047,27.5 60.666,27.5 Z M20.368,17.834 L29.5,8.702 L29.5,58.416 C29.5,59.797 30.619,60.916 32,60.916 C33.381,60.916 34.5,59.797 34.5,58.416 L34.5,8.702 L43.632,17.834 C44.12,18.322 44.76,18.566 45.4,18.566 C46.04,18.566 46.679,18.322 47.168,17.834 C48.145,16.858 48.145,15.275 47.168,14.299 L33.771,0.901 C33.317,0.447 32.691,0.166 32,0.166 C31.309,0.166 30.683,0.447 30.229,0.901 L16.833,14.299 C15.856,15.276 15.856,16.859 16.833,17.834 C17.81,18.811 19.392,18.811 20.368,17.834 Z" id="Shape" fill="#FFFFFF" fill-rule="nonzero"></path>
    </g>
</svg>