<?xml version="1.0" encoding="UTF-8"?>
<svg width="158px" height="115px" viewBox="0 0 158 115" version="1.1" xmlns="http://www.w3.org/2000/svg" xmlns:xlink="http://www.w3.org/1999/xlink">
    <!-- Generator: Sketch 42 (36781) - http://www.bohemiancoding.com/sketch -->
    <title>ss</title>
    <desc>Created with Sketch.</desc>
    <defs></defs>
    <g id="Page-1" stroke="none" stroke-width="1" fill="none" fill-rule="evenodd">
        <g id="noun_340589_cc" transform="translate(20.000000, 21.000000)" fill-rule="nonzero" fill="#FFFFFF">
            <g id="export">
                <path d="M112.5,9.77777778 L4.5,9.77777778 C2.01471868,9.7777777 1.34110394e-07,7.58894761 1.34110394e-07,4.88888889 C1.34110394e-07,2.18883017 2.01471868,8.04680232e-08 4.5,0 L112.5,0 C114.985281,5.78960748e-15 117,2.18883011 117,4.88888889 C117,7.58894767 114.985281,9.77777778 112.5,9.77777778 L112.5,9.77777778 Z" id="Shape"></path>
                <path d="M76.5,40 L4.5,40 C2.01471863,40 0,37.8111699 0,35.1111111 C0,32.4110523 2.01471863,30.2222222 4.5,30.2222222 L76.5,30.2222222 C78.9852814,30.2222222 81,32.4110523 81,35.1111111 C81,37.8111699 78.9852814,40 76.5,40 L76.5,40 Z" id="Shape"></path>
                <path d="M92.3076923,72 L3.69230769,72 C1.65310246,72 0,69.8111699 0,67.1111111 C0,64.4110523 1.65310246,62.2222222 3.69230769,62.2222222 L92.3076923,62.2222222 C94.3468975,62.2222222 96,64.4110523 96,67.1111111 C96,69.8111699 94.3468975,72 92.3076923,72 Z" id="Shape"></path>
            </g>
        </g>
    </g>
</svg>