<?xml version="1.0" encoding="UTF-8"?>
<svg width="184px" height="154px" viewBox="0 0 184 154" version="1.1" xmlns="http://www.w3.org/2000/svg" xmlns:xlink="http://www.w3.org/1999/xlink">
    <!-- Generator: Sketch 42 (36781) - http://www.bohemiancoding.com/sketch -->
    <title>Slice 2</title>
    <desc>Created with Sketch.</desc>
    <defs></defs>
    <g id="Page-1" stroke="none" stroke-width="1" fill="none" fill-rule="evenodd">
        <g id="twitter" transform="translate(29.000000, 22.000000)" fill-rule="nonzero" fill="#FFFFFF">
            <g id="Capa_1">
                <path d="M129.747096,12.732933 C124.972827,14.8514115 119.843275,16.2834258 114.458791,16.9272871 C119.954269,13.6306364 124.175088,8.41051675 126.162846,2.18999043 C121.01885,5.24294258 115.322671,7.45955981 109.259045,8.65396172 C104.403684,3.47695215 97.4853021,0.242430622 89.8289864,0.242430622 C75.1283431,0.242430622 63.2101559,12.168445 63.2101559,26.8791148 C63.2101559,28.9669091 63.445575,30.9999282 63.8994347,32.9497703 C41.7766277,31.8385455 22.1623392,21.2339809 9.03360624,5.11766986 C6.74226121,9.05184211 5.42933723,13.6275933 5.42933723,18.5094258 C5.42933723,27.7512057 10.1285965,35.9045837 17.2712476,40.6814306 C12.9077583,40.5429713 8.80325536,39.3447656 5.21469786,37.3495311 C5.21216374,37.4606029 5.21216374,37.5721818 5.21216374,37.6845215 C5.21216374,50.5906555 14.3879337,61.3565024 26.5648538,63.8041388 C24.33154,64.4124976 21.9796296,64.7391196 19.5519493,64.7391196 C17.8366082,64.7391196 16.1691618,64.5717512 14.5435283,64.2603445 C17.9311306,74.8425933 27.761462,82.5450909 39.4097661,82.7593732 C30.2996296,89.9044833 18.8218713,94.162488 6.35023392,94.162488 C4.20155945,94.162488 2.08278752,94.0367081 0.000253411306,93.7894593 C11.7803314,101.348172 25.7724366,105.758077 40.8047953,105.758077 C89.7666472,105.758077 116.541326,65.1681914 116.541326,29.9675694 C116.541326,28.8127273 116.514971,27.6639713 116.464035,26.5213014 C121.665556,22.7659091 126.178558,18.0745215 129.747096,12.732933 Z" id="Shape"></path>
            </g>
        </g>
    </g>
</svg>