<?xml version="1.0" encoding="UTF-8"?>
<svg width="23px" height="23px" viewBox="0 0 23 23" version="1.1" xmlns="http://www.w3.org/2000/svg" xmlns:xlink="http://www.w3.org/1999/xlink">
    <!-- Generator: Sketch 42 (36781) - http://www.bohemiancoding.com/sketch -->
    <title>twitter-small</title>
    <desc>Created with Sketch.</desc>
    <defs></defs>
    <g id="Page-1" stroke="none" stroke-width="1" fill="none" fill-rule="evenodd">
        <path d="M20.5460958,5.65726164 C19.9004556,5.93834506 19.2067692,6.12834722 18.4786076,6.21377586 C19.2217793,5.77637049 19.7925747,5.08375591 20.0613858,4.25840563 C19.3657461,4.66347665 18.595433,4.95758129 17.7754287,5.11605662 C17.1188221,4.42916196 16.1832264,4 15.1478375,4 C13.1598207,4 11.5480847,5.58236439 11.5480847,7.53420172 C11.5480847,7.81121391 11.5799212,8.08095843 11.6412982,8.33966688 C8.64955763,8.19222763 5.99705235,6.7851955 4.22161026,4.64685525 C3.91174407,5.16884808 3.73419301,5.77596673 3.73419301,6.42369678 C3.73419301,7.64991226 4.36968942,8.73171667 5.33561382,9.36551705 C4.74552469,9.34714603 4.19045915,9.18816601 3.70516661,8.92343481 C3.70482392,8.93817201 3.70482392,8.9529765 3.70482392,8.96788192 C3.70482392,10.6802903 4.94569372,12.1087216 6.592419,12.4334783 C6.29040057,12.5141964 5.97234393,12.5575332 5.64404067,12.5575332 C5.41206941,12.5575332 5.1865751,12.5353265 4.96673529,12.4940085 C5.42485198,13.8980797 6.7542403,14.9200605 8.32947909,14.9484919 C7.09748512,15.8965175 5.5453098,16.461477 3.85872892,16.461477 C3.56815655,16.461477 3.28162799,16.4447883 3,16.4119829 C4.59305901,17.4148861 6.4852578,18 8.51813352,18 C15.1394071,18 18.7602357,12.6144632 18.7602357,7.94398326 C18.7602357,7.7907568 18.7566716,7.63833785 18.7497834,7.48672641 C19.4532023,6.98845441 20.0635106,6.36599292 20.5460958,5.65726164 Z" id="Shape" fill="#FFFFFF" fill-rule="nonzero"></path>
    </g>
</svg>