<?xml version="1.0" encoding="UTF-8"?>
<svg width="30px" height="30px" viewBox="0 0 30 30" version="1.1" xmlns="http://www.w3.org/2000/svg" xmlns:xlink="http://www.w3.org/1999/xlink">
    <!-- Generator: Sketch 43.2 (39069) - http://www.bohemiancoding.com/sketch -->
    <title>Shape</title>
    <desc>Created with Sketch.</desc>
    <defs></defs>
    <g id="Page-1" stroke="none" stroke-width="1" fill="none" fill-rule="evenodd">
        <path d="M14.5950003,0 C6.54400568,0 0,6.54381081 0,14.5945946 C0,22.6453378 6.54399919,29.1891892 14.5950003,29.1891892 C22.6460013,29.1891892 29.1900005,22.6453378 29.1900005,14.5945946 C29.1900005,6.54381081 22.6459949,0 14.5950003,0 Z M14.5950003,1.62162162 C21.7695805,1.62162162 27.5683338,7.4202 27.5683338,14.5945946 C27.5683338,21.768973 21.7695902,27.5675676 14.5950003,27.5675676 C7.42041031,27.5675676 1.6216667,21.768973 1.6216667,14.5945946 C1.6216667,7.4202 7.42042004,1.62162162 14.5950003,1.62162162 Z M14.5950003,5.67567568 C11.9177392,5.67567568 9.73000018,7.8633527 9.73000018,10.5405405 C9.73000018,12.1502189 10.5443675,13.545077 11.7570835,14.4298986 L11.7570835,20.6756757 C11.7570835,22.2338108 13.0368198,23.5135135 14.5950003,23.5135135 C16.1531807,23.5135135 17.432917,22.2338108 17.432917,20.6756757 L17.432917,14.4298986 C18.645633,13.545077 19.4600004,12.1502189 19.4600004,10.5405405 C19.4600004,7.8633527 17.2722613,5.67567568 14.5950003,5.67567568 Z M14.5950003,7.2972973 C16.3958478,7.2972973 17.8383337,8.73974189 17.8383337,10.5405405 C17.8383337,11.7504486 17.1884528,12.7925189 16.216667,13.3530405 C15.9674671,13.4969227 15.8131842,13.7620891 15.8112503,14.0498311 L15.8112503,20.6756757 C15.8112503,21.3634459 15.2828282,21.8918919 14.5950003,21.8918919 C13.9071724,21.8918919 13.3787502,21.3634459 13.3787502,20.6756757 L13.3787502,14.0498311 C13.3768164,13.7620891 13.2225335,13.4969227 12.9733336,13.3530405 C12.0015478,12.7925189 11.3516669,11.7504486 11.3516669,10.5405405 C11.3516669,8.73974189 12.7941528,7.2972973 14.5950003,7.2972973 Z" id="Shape" fill="#FFFFFF" fill-rule="nonzero"></path>
    </g>
</svg>